<svg id="svg" version="1.1" xmlns="http://www.w3.org/2000/svg" xmlns:xlink="http://www.w3.org/1999/xlink" width="400" height="400" viewBox="0, 0, 400,400"><g id="svgg"><path id="path0" d="M40.800 16.600 C 40.414 17.065,39.336 17.200,35.997 17.200 C 31.846 17.200,31.669 17.236,31.037 18.200 C 30.547 18.948,30.032 19.200,28.998 19.200 C 27.857 19.200,27.571 19.375,27.364 20.200 C 27.191 20.892,26.839 21.200,26.223 21.200 C 25.359 21.200,23.200 23.191,23.200 23.987 C 23.200 24.204,22.750 24.676,22.200 25.037 C 21.650 25.397,21.200 26.012,21.200 26.403 C 21.200 26.827,20.797 27.214,20.200 27.364 C 19.476 27.546,19.200 27.884,19.200 28.589 C 19.200 29.125,18.772 29.992,18.249 30.515 C 17.374 31.389,17.292 31.817,17.228 35.824 C 17.178 38.989,17.000 40.358,16.579 40.823 C 15.700 41.795,15.703 358.209,16.583 359.181 C 17.003 359.645,17.183 360.971,17.230 363.940 C 17.292 367.880,17.335 368.071,18.247 368.418 C 18.771 368.617,19.200 369.093,19.200 369.475 C 19.200 369.857,19.642 370.537,20.182 370.985 C 20.797 371.495,21.218 372.324,21.307 373.200 C 21.415 374.266,21.652 374.630,22.300 374.725 C 22.820 374.801,23.199 375.190,23.275 375.725 C 23.352 376.265,23.730 376.647,24.262 376.723 C 24.787 376.798,25.221 377.228,25.370 377.823 C 25.584 378.674,25.842 378.800,27.380 378.800 C 28.905 378.800,29.162 378.922,29.272 379.700 C 29.364 380.347,29.712 380.636,30.509 380.727 C 31.119 380.798,32.056 381.293,32.592 381.828 L 33.565 382.801 199.882 382.700 L 366.200 382.600 366.328 381.700 C 366.439 380.921,366.694 380.800,368.236 380.800 C 369.712 380.800,370.090 380.641,370.441 379.870 C 370.728 379.240,371.393 378.821,372.503 378.570 C 373.891 378.256,374.211 377.986,374.602 376.800 C 374.916 375.845,375.485 375.197,376.392 374.761 C 377.964 374.006,378.800 372.974,378.800 371.788 C 378.800 371.259,379.185 370.753,379.800 370.473 C 380.649 370.086,380.800 369.748,380.800 368.236 C 380.800 366.694,380.921 366.439,381.700 366.328 L 382.600 366.200 382.713 200.400 C 382.830 28.366,382.855 32.198,381.611 31.803 C 381.161 31.661,380.798 31.119,380.725 30.481 C 380.636 29.712,380.340 29.363,379.700 29.272 C 378.922 29.162,378.800 28.905,378.800 27.380 C 378.800 25.842,378.674 25.584,377.823 25.370 C 377.228 25.221,376.798 24.787,376.723 24.262 C 376.647 23.730,376.265 23.352,375.725 23.275 C 375.179 23.198,374.802 22.821,374.725 22.275 C 374.626 21.579,374.291 21.374,373.093 21.275 C 372.022 21.187,371.401 20.869,370.947 20.175 C 370.596 19.639,369.964 19.200,369.544 19.200 C 369.107 19.200,368.625 18.792,368.418 18.247 C 368.071 17.335,367.880 17.292,363.940 17.230 C 360.971 17.183,359.645 17.003,359.181 16.583 C 358.188 15.685,41.545 15.702,40.800 16.600 M218.006 42.944 C 219.440 43.260,221.690 43.638,223.006 43.783 C 228.082 44.342,231.418 44.893,231.845 45.243 C 232.090 45.443,233.890 45.854,235.845 46.157 C 237.800 46.460,240.030 46.978,240.800 47.309 C 241.570 47.640,243.010 48.042,244.000 48.203 C 244.990 48.363,246.255 48.727,246.811 49.012 C 247.367 49.296,248.807 49.808,250.011 50.150 C 253.628 51.176,258.184 52.859,258.435 53.261 C 258.565 53.469,259.618 53.888,260.776 54.194 C 261.933 54.499,263.177 54.999,263.540 55.305 C 263.903 55.612,264.944 56.074,265.853 56.333 C 266.761 56.592,267.728 57.073,268.002 57.402 C 268.275 57.731,268.704 58.000,268.956 58.000 C 269.369 58.000,270.858 58.747,277.400 62.236 C 278.500 62.822,279.460 63.459,279.533 63.651 C 279.607 63.843,279.883 64.000,280.147 64.000 C 280.636 64.000,284.521 66.344,285.588 67.283 C 285.911 67.567,286.856 68.106,287.688 68.480 C 288.519 68.855,289.200 69.321,289.200 69.516 C 289.200 69.712,289.643 70.073,290.184 70.320 C 290.726 70.567,291.491 71.060,291.884 71.415 C 292.278 71.771,293.950 73.065,295.600 74.291 C 306.599 82.460,320.417 96.428,326.800 105.827 C 327.350 106.637,328.180 107.682,328.644 108.150 C 329.109 108.617,329.616 109.405,329.771 109.900 C 329.927 110.395,330.218 110.800,330.419 110.800 C 330.620 110.800,331.164 111.545,331.629 112.456 C 332.093 113.367,332.817 114.481,333.237 114.932 C 333.657 115.382,334.000 115.965,334.000 116.226 C 334.000 116.488,334.254 116.913,334.566 117.171 C 334.877 117.430,335.513 118.397,335.979 119.320 C 336.445 120.244,337.342 121.900,337.972 123.000 C 338.602 124.100,339.492 125.720,339.949 126.600 C 340.406 127.480,340.945 128.470,341.147 128.800 C 342.165 130.462,343.928 134.363,344.179 135.506 C 344.336 136.218,344.629 136.800,344.830 136.800 C 345.032 136.800,345.497 137.880,345.864 139.200 C 346.231 140.520,346.674 141.600,346.849 141.600 C 347.023 141.600,347.539 142.853,347.995 144.384 C 348.451 145.915,348.983 147.266,349.177 147.386 C 349.372 147.506,349.656 148.368,349.810 149.302 C 349.963 150.236,350.410 151.720,350.802 152.600 C 351.194 153.480,351.734 155.280,352.003 156.600 C 352.271 157.920,352.714 159.450,352.986 160.000 C 353.257 160.550,353.696 162.350,353.959 164.000 C 354.223 165.650,354.679 167.720,354.973 168.600 C 355.266 169.480,355.714 172.090,355.968 174.400 C 356.222 176.710,356.738 179.950,357.115 181.600 C 358.127 186.031,358.129 214.904,357.118 218.800 C 356.747 220.230,356.232 223.380,355.975 225.800 C 355.717 228.220,355.264 230.830,354.968 231.600 C 354.672 232.370,354.158 234.595,353.827 236.544 C 353.496 238.493,353.065 240.293,352.870 240.544 C 352.674 240.795,352.294 242.153,352.025 243.562 C 351.756 244.971,351.190 246.768,350.768 247.556 C 350.345 248.344,350.000 249.448,350.000 250.009 C 350.000 250.571,349.650 251.716,349.223 252.554 C 348.796 253.392,348.328 254.646,348.184 255.339 C 348.040 256.033,347.515 257.320,347.018 258.200 C 346.522 259.080,346.001 260.400,345.861 261.132 C 345.721 261.865,345.245 262.925,344.804 263.486 C 344.362 264.048,344.000 264.899,344.000 265.376 C 344.000 265.854,343.559 266.842,343.021 267.572 C 342.482 268.301,341.929 269.414,341.790 270.045 C 341.652 270.675,341.357 271.303,341.136 271.439 C 340.915 271.576,340.377 272.520,339.942 273.536 C 339.506 274.552,339.026 275.478,338.875 275.592 C 338.724 275.706,338.191 276.610,337.691 277.600 C 337.191 278.590,336.348 280.120,335.818 281.000 C 335.287 281.880,334.494 283.242,334.056 284.027 C 333.617 284.811,332.975 285.689,332.629 285.976 C 332.283 286.263,332.000 286.713,332.000 286.977 C 332.000 287.240,331.460 288.061,330.800 288.800 C 330.140 289.539,329.600 290.375,329.600 290.658 C 329.600 290.941,329.240 291.365,328.800 291.600 C 328.360 291.835,328.000 292.256,328.000 292.534 C 328.000 293.588,317.420 306.147,311.784 311.784 C 306.147 317.420,293.588 328.000,292.534 328.000 C 292.256 328.000,291.835 328.360,291.600 328.800 C 291.365 329.240,290.941 329.600,290.658 329.600 C 290.375 329.600,289.539 330.140,288.800 330.800 C 288.061 331.460,287.240 332.000,286.977 332.000 C 286.713 332.000,286.263 332.283,285.976 332.629 C 285.689 332.975,284.811 333.617,284.027 334.056 C 283.242 334.494,281.880 335.287,281.000 335.818 C 280.120 336.348,278.590 337.191,277.600 337.691 C 276.610 338.191,275.706 338.724,275.592 338.875 C 275.478 339.026,274.552 339.506,273.536 339.942 C 272.520 340.377,271.576 340.915,271.439 341.136 C 271.303 341.357,270.675 341.652,270.045 341.790 C 269.414 341.929,268.301 342.482,267.572 343.021 C 266.842 343.559,265.854 344.000,265.376 344.000 C 264.899 344.000,264.048 344.362,263.486 344.804 C 262.925 345.245,261.865 345.721,261.132 345.861 C 260.400 346.001,259.080 346.522,258.200 347.018 C 257.320 347.515,256.033 348.040,255.339 348.184 C 254.646 348.328,253.392 348.796,252.554 349.223 C 251.716 349.650,250.571 350.000,250.009 350.000 C 249.448 350.000,248.344 350.345,247.556 350.768 C 246.768 351.190,244.971 351.756,243.562 352.025 C 242.153 352.294,240.795 352.674,240.544 352.870 C 240.293 353.065,238.493 353.496,236.544 353.827 C 234.595 354.158,232.370 354.672,231.600 354.968 C 230.830 355.264,228.220 355.717,225.800 355.975 C 223.380 356.232,220.230 356.747,218.800 357.118 C 214.904 358.129,186.031 358.127,181.600 357.115 C 179.950 356.738,176.710 356.222,174.400 355.968 C 172.090 355.714,169.480 355.266,168.600 354.973 C 167.720 354.679,165.650 354.223,164.000 353.959 C 162.350 353.696,160.550 353.261,160.000 352.993 C 159.450 352.725,157.609 352.201,155.908 351.827 C 154.207 351.454,152.719 350.993,152.601 350.801 C 152.483 350.610,151.354 350.242,150.093 349.983 C 148.832 349.725,147.350 349.273,146.800 348.980 C 146.250 348.687,144.855 348.152,143.700 347.791 C 142.545 347.431,141.600 346.984,141.600 346.800 C 141.600 346.615,141.015 346.348,140.300 346.207 C 138.512 345.854,136.800 345.165,136.800 344.799 C 136.800 344.632,135.997 344.293,135.015 344.045 C 134.033 343.798,132.568 343.147,131.759 342.598 C 130.950 342.049,129.964 341.600,129.568 341.600 C 129.171 341.600,128.727 341.405,128.580 341.167 C 128.432 340.929,127.567 340.378,126.656 339.942 C 125.745 339.507,124.100 338.628,123.000 337.989 C 121.900 337.350,120.244 336.445,119.320 335.979 C 118.397 335.513,117.430 334.877,117.171 334.566 C 116.913 334.254,116.488 334.000,116.226 334.000 C 115.965 334.000,115.382 333.657,114.932 333.237 C 114.481 332.817,113.367 332.093,112.456 331.629 C 111.545 331.164,110.800 330.625,110.800 330.431 C 110.800 330.237,110.260 329.890,109.600 329.660 C 108.940 329.430,108.400 329.057,108.400 328.831 C 108.400 328.605,107.850 328.136,107.179 327.789 C 106.507 327.442,105.652 326.888,105.279 326.560 C 104.905 326.231,102.260 324.065,99.400 321.747 C 91.242 315.135,84.632 308.511,77.928 300.230 C 75.956 297.794,74.061 295.456,73.719 295.035 C 73.376 294.614,72.742 293.669,72.308 292.935 C 71.875 292.201,71.349 291.600,71.140 291.600 C 70.930 291.600,70.570 291.060,70.340 290.400 C 70.110 289.740,69.751 289.200,69.541 289.200 C 69.332 289.200,68.855 288.519,68.480 287.688 C 68.106 286.856,67.567 285.911,67.283 285.588 C 66.344 284.521,64.000 280.636,64.000 280.147 C 64.000 279.883,63.843 279.607,63.651 279.533 C 63.459 279.460,62.822 278.500,62.236 277.400 C 58.747 270.858,58.000 269.369,58.000 268.956 C 58.000 268.704,57.731 268.275,57.402 268.002 C 57.073 267.728,56.592 266.761,56.333 265.853 C 56.074 264.944,55.612 263.903,55.305 263.540 C 54.999 263.177,54.499 261.933,54.194 260.776 C 53.888 259.618,53.469 258.565,53.261 258.435 C 52.857 258.183,51.169 253.609,50.149 250.000 C 49.806 248.790,49.367 247.607,49.172 247.370 C 48.978 247.134,48.544 245.637,48.209 244.044 C 47.874 242.451,47.389 240.754,47.132 240.274 C 46.875 239.793,46.426 237.800,46.135 235.845 C 45.845 233.890,45.443 232.090,45.243 231.845 C 44.893 231.418,44.342 228.082,43.783 223.006 C 43.638 221.690,43.264 219.440,42.953 218.006 C 41.603 211.795,41.844 188.000,43.341 179.600 C 43.674 177.730,44.148 174.596,44.394 172.635 C 44.641 170.674,45.009 168.758,45.212 168.377 C 45.416 167.996,45.851 166.026,46.179 163.998 C 46.507 161.970,46.950 160.101,47.164 159.843 C 47.378 159.586,47.828 158.056,48.164 156.443 C 48.500 154.831,48.956 153.294,49.176 153.029 C 49.397 152.763,49.785 151.568,50.038 150.373 C 50.291 149.178,50.836 147.532,51.249 146.716 C 51.662 145.900,52.000 144.982,52.000 144.676 C 52.000 144.370,52.440 143.291,52.978 142.280 C 53.516 141.268,54.075 139.807,54.220 139.034 C 54.365 138.261,54.734 137.421,55.039 137.168 C 55.344 136.914,55.783 136.004,56.015 135.145 C 56.246 134.286,56.877 132.932,57.418 132.136 C 57.958 131.340,58.400 130.394,58.400 130.033 C 58.400 129.673,58.672 128.990,59.004 128.516 C 59.335 128.042,60.347 126.247,61.251 124.527 C 62.155 122.807,63.116 121.130,63.386 120.800 C 63.657 120.470,63.978 119.916,64.100 119.568 C 64.222 119.221,65.015 117.890,65.861 116.610 C 66.708 115.331,67.732 113.725,68.138 113.042 C 68.544 112.359,69.219 111.428,69.638 110.974 C 70.057 110.520,70.400 109.937,70.400 109.678 C 70.400 109.419,70.760 108.982,71.200 108.707 C 71.640 108.432,72.002 108.026,72.004 107.804 C 72.006 107.582,72.630 106.590,73.390 105.600 C 74.150 104.610,75.093 103.372,75.486 102.849 C 75.879 102.327,76.695 101.355,77.300 100.690 C 77.905 100.025,78.402 99.373,78.404 99.241 C 78.406 99.108,79.261 98.086,80.304 96.970 C 81.347 95.853,83.135 93.862,84.279 92.544 C 86.916 89.504,89.504 86.916,92.544 84.279 C 93.862 83.135,95.853 81.347,96.970 80.304 C 98.086 79.261,99.108 78.406,99.241 78.404 C 99.373 78.402,100.025 77.905,100.690 77.300 C 101.355 76.695,102.327 75.879,102.849 75.486 C 103.372 75.093,104.610 74.150,105.600 73.390 C 106.590 72.630,107.582 72.006,107.804 72.004 C 108.026 72.002,108.432 71.640,108.707 71.200 C 108.982 70.760,109.419 70.400,109.678 70.400 C 109.937 70.400,110.520 70.057,110.974 69.638 C 111.428 69.219,112.359 68.544,113.042 68.138 C 113.725 67.732,115.331 66.708,116.610 65.861 C 117.890 65.015,119.221 64.222,119.568 64.100 C 119.916 63.978,120.470 63.657,120.800 63.386 C 121.130 63.116,122.807 62.155,124.527 61.251 C 126.247 60.347,128.042 59.335,128.516 59.004 C 128.990 58.672,129.673 58.400,130.033 58.400 C 130.394 58.400,131.340 57.958,132.136 57.418 C 132.932 56.877,134.286 56.246,135.145 56.015 C 136.004 55.783,136.914 55.344,137.168 55.039 C 137.421 54.734,138.261 54.365,139.034 54.220 C 139.807 54.075,141.268 53.516,142.280 52.978 C 143.291 52.440,144.370 52.000,144.676 52.000 C 144.982 52.000,145.900 51.661,146.716 51.246 C 147.532 50.832,149.232 50.280,150.493 50.019 C 151.754 49.759,152.881 49.392,152.997 49.204 C 153.114 49.016,154.494 48.570,156.066 48.212 C 157.637 47.855,159.261 47.381,159.676 47.160 C 160.090 46.938,162.061 46.492,164.057 46.170 C 166.052 45.847,167.996 45.416,168.377 45.212 C 168.758 45.009,170.674 44.640,172.635 44.393 C 174.596 44.146,177.820 43.656,179.800 43.305 C 187.621 41.918,212.296 41.685,218.006 42.944 M100.800 141.983 C 98.926 142.124,96.858 142.528,96.192 142.882 C 95.527 143.236,93.922 143.722,92.625 143.962 C 91.327 144.201,89.981 144.645,89.633 144.948 C 89.285 145.251,88.280 145.730,87.400 146.013 C 86.520 146.295,85.305 146.858,84.700 147.263 C 84.095 147.668,83.063 148.363,82.406 148.808 C 81.749 149.252,80.759 149.787,80.206 149.998 C 79.653 150.208,79.200 150.553,79.200 150.763 C 79.200 150.974,78.885 151.251,78.500 151.378 C 76.369 152.085,66.956 162.561,65.004 166.400 C 64.612 167.170,64.046 167.944,63.746 168.120 C 63.446 168.296,63.200 168.808,63.200 169.258 C 63.200 169.708,62.836 170.587,62.392 171.212 C 61.947 171.836,61.329 173.066,61.019 173.945 C 60.709 174.824,60.193 175.961,59.873 176.472 C 59.552 176.982,59.066 178.390,58.793 179.600 C 58.519 180.810,58.137 182.000,57.944 182.245 C 57.751 182.490,57.412 183.750,57.191 185.045 C 56.969 186.340,56.417 188.702,55.964 190.293 C 54.885 194.078,54.963 212.357,56.068 214.800 C 56.417 215.570,56.825 217.100,56.976 218.200 C 57.128 219.300,57.690 221.490,58.226 223.067 C 58.762 224.644,59.200 226.287,59.200 226.718 C 59.200 227.149,59.469 227.725,59.798 227.998 C 60.127 228.272,60.617 229.239,60.886 230.147 C 61.155 231.056,61.786 232.410,62.288 233.156 C 62.789 233.902,63.200 234.787,63.200 235.124 C 63.200 235.461,63.509 236.078,63.887 236.496 C 64.264 236.913,64.939 237.857,65.387 238.595 C 68.753 244.141,78.428 254.400,80.294 254.400 C 80.504 254.400,81.002 254.760,81.400 255.200 C 81.798 255.640,82.352 256.000,82.631 256.000 C 82.910 256.000,83.652 256.432,84.280 256.961 C 84.908 257.489,86.161 258.120,87.064 258.363 C 87.968 258.607,88.911 259.052,89.161 259.353 C 89.411 259.654,90.358 260.019,91.266 260.164 C 92.174 260.309,93.761 260.791,94.791 261.234 C 98.247 262.721,114.298 262.881,117.113 261.457 C 117.711 261.155,119.190 260.680,120.400 260.403 C 121.610 260.125,122.894 259.643,123.253 259.330 C 123.612 259.017,124.600 258.570,125.449 258.335 C 126.298 258.101,127.503 257.480,128.127 256.955 C 128.751 256.430,129.447 256.000,129.673 256.000 C 129.899 256.000,130.594 255.595,131.217 255.100 C 131.840 254.605,133.216 253.574,134.275 252.808 C 135.334 252.042,136.583 251.052,137.051 250.608 C 137.520 250.164,138.555 249.210,139.351 248.490 C 140.148 247.769,140.800 247.094,140.800 246.991 C 140.800 246.887,141.441 246.126,142.224 245.301 C 143.007 244.475,144.634 242.321,145.840 240.513 C 147.046 238.706,148.192 237.129,148.386 237.009 C 148.580 236.889,148.853 236.272,148.992 235.637 C 149.131 235.002,149.585 234.176,150.000 233.800 C 150.415 233.424,150.874 232.551,151.021 231.859 C 151.167 231.166,151.628 229.970,152.045 229.200 C 153.583 226.358,155.461 219.716,156.794 212.400 C 157.282 209.722,157.289 194.501,156.803 192.000 C 155.289 184.208,153.677 178.469,152.029 175.000 C 151.610 174.120,151.070 172.950,150.828 172.400 C 150.586 171.850,149.986 170.680,149.494 169.800 C 148.613 168.223,148.324 167.758,145.770 163.800 C 144.439 161.737,141.242 157.922,139.049 155.780 C 136.702 153.488,132.512 150.000,132.105 150.000 C 131.881 150.000,131.472 149.728,131.196 149.395 C 130.920 149.063,129.908 148.443,128.947 148.018 C 127.986 147.593,127.200 147.076,127.200 146.870 C 127.200 146.664,126.345 146.280,125.300 146.017 C 124.255 145.755,123.117 145.285,122.772 144.973 C 122.427 144.662,121.184 144.225,120.011 144.002 C 118.838 143.780,117.320 143.310,116.639 142.960 C 115.926 142.592,113.617 142.177,111.200 141.981 C 106.586 141.607,105.786 141.607,100.800 141.983 M110.611 160.126 C 111.045 160.415,112.169 160.874,113.108 161.145 C 114.048 161.415,115.036 161.989,115.304 162.419 C 115.573 162.848,116.005 163.200,116.265 163.200 C 117.384 163.200,124.000 170.935,124.000 172.244 C 124.000 172.550,124.184 172.800,124.410 172.800 C 124.635 172.800,125.006 173.295,125.233 173.900 C 125.461 174.505,126.066 175.900,126.578 177.000 C 127.090 178.100,127.643 179.627,127.807 180.394 C 127.971 181.161,128.362 182.181,128.677 182.662 C 128.992 183.142,129.495 185.173,129.796 187.176 C 130.097 189.178,130.580 191.488,130.869 192.308 C 131.715 194.713,131.600 209.955,130.713 212.815 C 130.336 214.034,129.907 216.104,129.760 217.415 C 129.614 218.727,129.068 220.830,128.547 222.088 C 128.026 223.346,127.600 224.609,127.600 224.894 C 127.600 225.179,127.265 226.039,126.856 226.806 C 126.447 227.573,125.979 228.650,125.816 229.200 C 125.535 230.150,125.042 230.995,122.500 234.882 C 117.029 243.249,107.394 247.028,100.200 243.629 C 96.788 242.017,92.400 238.811,92.400 237.929 C 92.400 237.768,91.970 237.158,91.445 236.573 C 89.557 234.469,89.221 234.010,88.422 232.444 C 87.976 231.570,87.443 230.750,87.236 230.623 C 87.030 230.495,86.736 229.808,86.582 229.095 C 86.429 228.383,85.875 227.064,85.352 226.165 C 84.828 225.266,84.396 224.096,84.391 223.565 C 84.386 223.034,84.016 221.791,83.567 220.803 C 83.119 219.815,82.498 217.115,82.188 214.803 C 81.878 212.491,81.447 209.790,81.230 208.800 C 80.710 206.432,80.723 197.886,81.249 195.600 C 81.477 194.610,81.907 191.910,82.204 189.600 C 82.502 187.290,83.114 184.590,83.564 183.600 C 84.014 182.610,84.386 181.330,84.391 180.756 C 84.396 180.182,84.824 179.086,85.343 178.322 C 85.862 177.558,86.405 176.297,86.551 175.521 C 86.697 174.745,87.172 173.787,87.608 173.393 C 88.044 172.999,88.400 172.520,88.400 172.328 C 88.400 171.028,94.927 163.468,96.473 162.977 C 96.873 162.850,97.200 162.606,97.200 162.434 C 97.200 162.262,97.965 161.800,98.900 161.408 C 99.835 161.015,101.140 160.452,101.800 160.156 C 103.391 159.443,109.555 159.422,110.611 160.126 " stroke="none" fill="#64238b" fill-rule="evenodd"></path><path id="path1" d="M169.758 125.579 C 167.883 126.026,166.556 127.200,165.633 129.228 C 164.655 131.374,164.428 149.949,165.227 162.400 C 165.460 166.030,165.800 179.800,165.982 193.000 L 166.313 217.000 167.456 219.200 C 168.739 221.667,170.323 223.398,171.687 223.821 C 172.189 223.977,173.140 224.486,173.800 224.952 C 174.995 225.796,175.115 225.800,200.939 225.744 L 226.878 225.688 228.139 224.167 C 229.800 222.163,229.940 221.229,229.997 211.762 C 230.073 199.297,231.485 200.355,214.210 199.934 C 207.176 199.763,200.966 199.451,200.410 199.242 C 199.855 199.032,198.724 198.748,197.897 198.612 C 196.922 198.450,196.168 198.018,195.751 197.381 C 195.397 196.842,194.883 196.400,194.607 196.400 C 194.332 196.400,193.687 195.455,193.175 194.300 C 192.089 191.854,192.126 192.856,191.680 153.468 L 191.400 128.735 190.300 127.934 C 189.695 127.494,189.200 126.903,189.200 126.622 C 189.200 125.423,173.856 124.600,169.758 125.579 M312.855 139.306 C 310.579 140.463,304.759 145.574,303.736 147.314 C 303.301 148.054,296.929 155.387,294.700 157.713 C 294.095 158.345,293.600 158.976,293.600 159.116 C 293.600 159.256,293.147 159.827,292.593 160.385 C 290.940 162.052,286.407 167.227,284.297 169.857 C 280.413 174.697,279.442 174.620,275.963 169.200 C 274.903 167.550,273.775 165.930,273.455 165.600 C 273.135 165.270,272.634 164.460,272.343 163.800 C 272.051 163.140,271.495 162.365,271.106 162.077 C 270.718 161.790,270.400 161.323,270.400 161.039 C 270.400 160.756,270.056 160.213,269.637 159.833 C 269.217 159.453,268.641 158.570,268.357 157.871 C 268.073 157.172,267.516 156.365,267.120 156.077 C 266.724 155.790,266.400 155.366,266.400 155.135 C 266.400 154.904,265.995 154.217,265.500 153.608 C 265.005 152.999,264.240 151.902,263.800 151.170 C 260.520 145.712,257.398 142.261,255.269 141.737 C 254.681 141.592,253.774 141.198,253.254 140.861 C 250.301 138.948,243.551 140.361,240.442 143.542 L 239.018 145.000 239.009 149.457 C 239.002 152.945,239.137 154.076,239.631 154.657 C 240.365 155.521,243.200 161.260,243.200 161.881 C 243.200 162.113,243.461 162.518,243.780 162.783 C 244.098 163.048,244.571 163.925,244.830 164.732 C 245.089 165.539,245.524 166.470,245.796 166.800 C 246.068 167.130,246.610 168.255,247.000 169.300 C 247.390 170.345,247.850 171.200,248.023 171.200 C 248.196 171.200,248.557 171.875,248.825 172.700 C 249.092 173.525,249.648 174.680,250.059 175.266 C 250.470 175.853,250.916 176.879,251.049 177.546 C 251.183 178.213,251.631 179.066,252.046 179.442 C 252.461 179.817,252.800 180.291,252.800 180.496 C 252.800 180.861,254.765 185.225,255.819 187.200 C 257.217 189.822,259.200 193.915,259.200 194.182 C 259.200 194.345,259.480 195.070,259.823 195.792 C 260.651 197.538,258.973 200.049,252.632 206.549 C 252.209 206.982,251.052 208.341,250.061 209.568 C 249.070 210.796,247.886 212.173,247.430 212.629 C 246.973 213.085,245.340 214.870,243.800 216.595 C 242.260 218.320,240.595 220.160,240.100 220.684 C 239.605 221.208,239.200 221.799,239.200 221.998 C 239.200 222.197,238.924 222.515,238.587 222.703 C 238.250 222.892,237.271 223.897,236.411 224.937 C 235.552 225.977,233.533 228.278,231.925 230.051 C 230.316 231.824,228.910 233.482,228.800 233.737 C 228.690 233.992,228.288 234.658,227.907 235.219 C 225.030 239.450,226.186 246.896,230.823 254.000 C 231.469 254.990,232.276 256.340,232.616 257.000 C 233.226 258.182,234.165 259.599,236.227 262.448 C 238.796 265.997,244.340 266.315,246.098 263.013 C 246.336 262.566,246.737 262.020,246.990 261.800 C 247.461 261.390,252.352 254.224,253.813 251.802 C 254.261 251.061,254.899 250.127,255.231 249.727 C 255.563 249.327,256.082 248.505,256.385 247.900 C 256.688 247.295,257.094 246.800,257.288 246.800 C 257.482 246.800,257.906 246.215,258.229 245.500 C 258.553 244.785,259.437 243.390,260.194 242.400 C 260.951 241.410,261.970 239.925,262.459 239.100 C 262.948 238.275,263.494 237.600,263.674 237.600 C 263.853 237.600,264.000 237.418,264.000 237.195 C 264.000 236.973,264.765 235.701,265.700 234.368 C 266.635 233.036,267.653 231.463,267.962 230.873 C 268.271 230.283,268.649 229.710,268.802 229.600 C 268.955 229.490,269.564 228.628,270.154 227.686 C 272.089 224.597,274.187 223.870,275.243 225.921 C 275.549 226.515,276.010 227.136,276.269 227.303 C 276.528 227.470,276.956 228.280,277.219 229.103 C 277.483 229.926,278.016 230.960,278.403 231.400 C 278.791 231.840,279.240 232.650,279.401 233.200 C 279.563 233.750,279.936 234.477,280.232 234.815 C 280.528 235.153,281.061 236.053,281.417 236.815 C 281.772 237.577,282.680 239.280,283.434 240.600 C 284.187 241.920,285.148 243.745,285.569 244.656 C 285.989 245.567,286.515 246.424,286.736 246.561 C 286.957 246.697,287.254 247.335,287.395 247.977 C 287.536 248.619,287.912 249.361,288.230 249.625 C 288.549 249.889,289.163 250.847,289.595 251.753 C 290.027 252.659,290.553 253.670,290.765 254.000 C 290.976 254.330,291.457 255.230,291.834 256.000 C 293.373 259.145,294.171 260.611,294.452 260.808 C 294.616 260.922,295.102 261.822,295.533 262.808 C 297.937 268.304,306.743 272.110,310.890 269.447 C 311.391 269.125,312.970 268.650,314.400 268.390 C 315.830 268.129,317.900 267.600,319.000 267.212 C 320.100 266.824,321.720 266.385,322.600 266.236 C 328.162 265.294,332.454 262.863,333.189 260.239 C 333.702 258.406,333.177 254.280,332.367 253.780 C 332.159 253.651,331.624 252.883,331.178 252.073 C 330.408 250.674,329.125 248.757,327.781 247.000 C 326.282 245.040,325.177 243.317,324.766 242.300 C 324.522 241.695,324.150 241.200,323.940 241.200 C 323.731 241.200,323.301 240.615,322.985 239.900 C 322.669 239.185,321.959 238.060,321.407 237.400 C 320.855 236.740,320.403 236.034,320.402 235.831 C 320.401 235.629,320.111 235.143,319.757 234.753 C 319.404 234.362,318.369 232.886,317.457 231.471 C 316.546 230.057,315.035 227.761,314.100 226.370 C 313.165 224.979,312.400 223.650,312.400 223.417 C 312.400 223.183,312.040 222.768,311.600 222.493 C 311.160 222.218,310.800 221.781,310.800 221.522 C 310.800 221.263,310.457 220.680,310.038 220.226 C 309.619 219.772,308.944 218.844,308.538 218.165 C 308.132 217.485,307.260 216.159,306.600 215.218 C 305.940 214.277,305.040 212.921,304.600 212.204 C 303.890 211.047,303.266 210.095,300.170 205.444 C 299.746 204.808,299.220 203.999,299.000 203.645 C 298.780 203.292,298.105 202.411,297.500 201.687 C 296.895 200.964,296.400 200.117,296.400 199.806 C 296.400 199.495,296.164 199.096,295.875 198.920 C 293.074 197.212,293.150 193.775,296.083 189.591 C 297.027 188.244,298.109 186.660,298.486 186.071 C 298.863 185.482,299.457 184.640,299.805 184.200 C 300.496 183.326,307.311 173.136,308.600 171.049 C 309.040 170.337,309.627 169.494,309.905 169.177 C 311.334 167.543,312.798 165.433,313.035 164.665 C 313.181 164.189,313.548 163.530,313.849 163.200 C 315.028 161.907,316.327 160.092,317.799 157.682 C 318.644 156.297,319.541 155.037,319.792 154.882 C 320.042 154.727,320.478 154.028,320.760 153.329 C 321.042 152.630,321.617 151.747,322.037 151.367 C 322.456 150.987,322.800 150.447,322.800 150.167 C 322.800 149.886,323.042 149.416,323.337 149.120 C 324.681 147.776,325.472 141.947,324.494 140.594 C 322.302 137.562,317.361 137.015,312.855 139.306 " stroke="none" fill="#e08d05" fill-rule="evenodd"></path><path id="path2" d="M186.400 44.234 C 179.985 44.778,176.158 45.292,173.400 45.977 C 172.520 46.196,170.180 46.636,168.200 46.955 C 164.600 47.536,160.986 48.397,157.600 49.482 C 156.610 49.800,154.540 50.384,153.000 50.782 C 151.460 51.179,149.570 51.775,148.800 52.106 C 146.373 53.151,141.012 55.207,140.723 55.203 C 140.571 55.201,138.951 55.903,137.123 56.761 C 135.295 57.620,132.990 58.696,132.000 59.152 C 131.010 59.607,129.930 60.145,129.600 60.347 C 129.270 60.549,128.550 60.918,128.000 61.166 C 126.082 62.031,116.056 67.865,115.600 68.381 C 115.490 68.505,114.246 69.309,112.836 70.168 C 111.426 71.026,109.959 72.014,109.576 72.364 C 109.194 72.714,108.222 73.450,107.416 74.000 C 105.116 75.571,101.485 78.407,99.525 80.163 C 99.056 80.583,97.487 81.952,96.037 83.206 C 93.087 85.755,84.369 94.533,82.327 97.008 C 81.597 97.893,80.640 99.012,80.200 99.497 C 78.494 101.374,75.616 105.050,74.000 107.416 C 73.450 108.222,72.695 109.213,72.321 109.619 C 71.948 110.025,71.340 110.943,70.969 111.659 C 70.599 112.375,70.050 113.208,69.748 113.509 C 69.447 113.810,69.200 114.211,69.200 114.400 C 69.200 114.589,68.969 114.981,68.687 115.271 C 68.404 115.562,67.326 117.240,66.290 119.000 C 65.255 120.760,64.224 122.470,64.001 122.800 C 63.777 123.130,63.265 124.030,62.864 124.800 C 61.341 127.723,60.654 129.019,60.323 129.600 C 60.134 129.930,59.607 131.010,59.152 132.000 C 58.696 132.990,57.620 135.295,56.761 137.123 C 55.903 138.951,55.201 140.571,55.203 140.723 C 55.207 141.012,53.151 146.373,52.106 148.800 C 51.775 149.570,51.179 151.460,50.782 153.000 C 50.384 154.540,49.800 156.610,49.482 157.600 C 48.397 160.986,47.536 164.600,46.955 168.200 C 46.636 170.180,46.178 172.610,45.936 173.600 C 44.781 178.336,43.600 191.703,43.600 200.034 C 43.600 208.005,44.794 221.996,45.798 225.800 C 46.089 226.900,46.544 229.510,46.809 231.600 C 47.074 233.690,47.525 235.856,47.811 236.414 C 48.097 236.971,48.444 238.141,48.582 239.014 C 48.809 240.455,50.636 246.831,51.672 249.800 C 51.903 250.460,52.434 251.990,52.853 253.200 C 53.272 254.410,53.882 255.967,54.207 256.660 C 54.533 257.354,54.800 258.044,54.800 258.193 C 54.800 259.092,61.142 272.553,62.464 274.462 C 62.869 275.046,63.200 275.783,63.200 276.100 C 63.200 276.417,63.555 276.998,63.990 277.391 C 64.424 277.784,64.892 278.487,65.030 278.953 C 65.304 279.882,65.762 280.622,69.841 286.735 C 73.215 291.793,73.641 292.401,74.400 293.265 C 74.730 293.640,75.540 294.683,76.200 295.583 C 80.875 301.958,88.951 310.606,96.614 317.442 C 101.597 321.888,102.684 322.800,103.000 322.800 C 103.162 322.800,103.873 323.295,104.580 323.900 C 105.286 324.505,106.390 325.418,107.032 325.928 C 108.712 327.263,119.108 334.132,121.000 335.157 C 121.880 335.634,123.500 336.521,124.600 337.129 C 129.541 339.858,131.045 340.615,135.600 342.669 C 136.810 343.215,138.340 343.907,139.000 344.207 C 141.229 345.220,146.457 347.200,146.904 347.200 C 147.148 347.200,148.079 347.542,148.974 347.960 C 149.868 348.378,151.590 348.942,152.800 349.213 C 154.010 349.485,155.458 349.939,156.017 350.221 C 156.576 350.504,158.118 350.931,159.443 351.171 C 160.767 351.412,162.830 351.950,164.026 352.367 C 165.221 352.784,167.460 353.250,169.000 353.403 C 170.540 353.556,173.150 354.014,174.800 354.420 C 185.597 357.077,213.864 357.074,225.400 354.415 C 227.160 354.009,230.201 353.471,232.158 353.219 C 234.115 352.967,236.188 352.517,236.764 352.219 C 237.339 351.921,238.708 351.546,239.805 351.385 C 240.902 351.225,242.680 350.750,243.756 350.330 C 244.832 349.911,246.632 349.371,247.756 349.130 C 248.880 348.889,250.427 348.357,251.194 347.946 C 251.961 347.536,252.802 347.200,253.064 347.200 C 253.325 347.200,254.948 346.650,256.670 345.979 C 260.133 344.627,260.294 344.559,264.000 342.873 C 268.545 340.806,270.184 340.030,270.800 339.653 C 271.130 339.451,271.850 339.076,272.400 338.820 C 272.950 338.564,274.237 337.869,275.260 337.277 C 276.283 336.685,277.869 335.786,278.784 335.279 C 279.700 334.773,281.473 333.695,282.724 332.884 C 283.976 332.072,285.300 331.227,285.667 331.004 C 301.068 321.667,321.400 301.333,331.004 285.660 C 331.227 285.297,332.072 283.976,332.884 282.724 C 333.695 281.473,334.773 279.700,335.279 278.784 C 335.786 277.869,336.685 276.283,337.277 275.260 C 337.869 274.237,338.564 272.950,338.820 272.400 C 339.076 271.850,339.451 271.130,339.653 270.800 C 340.030 270.184,340.806 268.545,342.873 264.000 C 344.559 260.294,344.627 260.133,345.979 256.670 C 346.650 254.948,347.200 253.325,347.200 253.064 C 347.200 252.802,347.536 251.961,347.946 251.194 C 348.357 250.427,348.889 248.880,349.130 247.756 C 349.371 246.632,349.911 244.832,350.330 243.756 C 350.750 242.680,351.225 240.902,351.385 239.805 C 351.546 238.708,351.921 237.339,352.219 236.764 C 352.517 236.188,352.967 234.115,353.219 232.158 C 353.471 230.201,354.009 227.160,354.415 225.400 C 357.074 213.864,357.077 185.597,354.420 174.800 C 354.014 173.150,353.556 170.540,353.403 169.000 C 353.250 167.460,352.784 165.221,352.367 164.026 C 351.950 162.830,351.412 160.767,351.171 159.443 C 350.931 158.118,350.504 156.576,350.221 156.017 C 349.939 155.458,349.485 154.010,349.213 152.800 C 348.942 151.590,348.378 149.868,347.960 148.974 C 347.542 148.079,347.200 147.130,347.200 146.865 C 347.200 146.017,343.745 137.738,340.914 131.800 C 340.023 129.931,339.744 129.397,337.217 124.718 C 335.114 120.826,328.729 110.615,328.014 110.000 C 327.886 109.890,327.459 109.293,327.064 108.674 C 326.350 107.552,325.930 107.006,323.967 104.643 C 323.400 103.959,322.830 103.130,322.702 102.800 C 322.464 102.188,314.056 92.793,310.800 89.502 C 308.193 86.867,298.774 78.428,297.600 77.676 C 297.050 77.324,296.024 76.577,295.320 76.018 C 294.616 75.458,293.626 74.693,293.120 74.317 C 292.614 73.941,291.660 73.218,291.000 72.709 C 290.340 72.200,288.180 70.725,286.200 69.432 C 284.220 68.139,282.129 66.760,281.554 66.368 C 280.979 65.977,279.899 65.365,279.154 65.010 C 278.409 64.655,276.900 63.849,275.800 63.220 C 271.178 60.574,259.104 54.800,258.193 54.800 C 258.044 54.800,257.354 54.533,256.660 54.207 C 255.967 53.882,254.410 53.272,253.200 52.853 C 251.990 52.434,250.460 51.904,249.800 51.675 C 245.738 50.268,240.748 48.800,240.025 48.800 C 239.560 48.800,238.163 48.443,236.921 48.006 C 235.678 47.569,232.735 46.943,230.380 46.615 C 228.025 46.286,225.671 45.858,225.149 45.662 C 220.762 44.021,198.557 43.202,186.400 44.234 M188.600 124.485 C 193.578 127.184,193.794 129.258,193.948 175.850 C 194.006 193.399,194.018 193.528,195.750 195.236 C 198.363 197.814,198.129 197.776,212.800 197.997 C 232.355 198.293,232.195 198.178,231.835 211.600 C 231.578 221.216,231.123 223.463,229.009 225.578 L 227.587 227.000 202.494 227.297 C 174.384 227.629,174.644 227.648,170.521 224.907 C 165.850 221.800,164.809 218.883,164.785 208.833 C 164.776 205.405,164.605 199.720,164.403 196.200 C 163.919 187.740,163.066 132.685,163.387 130.550 C 163.846 127.490,166.515 124.930,170.800 123.441 C 173.113 122.637,186.658 123.432,188.600 124.485 M323.927 137.883 C 324.657 138.433,325.442 139.359,325.670 139.941 C 325.899 140.524,326.247 141.313,326.443 141.695 C 327.706 144.152,321.990 156.850,318.382 159.600 C 318.238 159.710,317.888 160.250,317.605 160.800 C 317.321 161.350,316.839 162.070,316.533 162.400 C 315.584 163.425,314.034 165.742,313.413 167.063 C 313.087 167.758,312.680 168.388,312.510 168.463 C 312.339 168.539,310.946 170.490,309.414 172.800 C 307.882 175.110,306.477 177.180,306.291 177.400 C 305.992 177.753,305.026 179.217,303.800 181.174 C 303.580 181.525,302.950 182.440,302.399 183.206 C 301.848 183.973,301.218 184.898,300.999 185.263 C 300.780 185.628,299.484 187.542,298.119 189.518 C 294.357 194.964,294.224 193.967,299.780 202.000 C 300.769 203.430,301.583 204.816,301.589 205.080 C 301.595 205.344,301.846 205.704,302.146 205.880 C 302.446 206.056,302.987 206.740,303.348 207.400 C 303.710 208.060,304.338 209.050,304.744 209.600 C 305.150 210.150,306.184 211.679,307.041 212.997 C 307.899 214.316,308.813 215.622,309.074 215.900 C 309.334 216.177,309.662 216.764,309.801 217.202 C 309.940 217.641,310.210 218.000,310.400 218.000 C 310.590 218.000,310.855 218.344,310.989 218.765 C 311.122 219.186,311.720 220.158,312.316 220.927 C 312.912 221.695,313.760 222.919,314.200 223.648 C 314.640 224.376,315.270 225.356,315.600 225.826 C 316.472 227.068,317.089 227.990,324.287 238.800 C 327.876 244.190,331.351 249.373,332.008 250.317 C 338.145 259.130,335.910 264.557,325.000 267.332 C 320.484 268.480,317.799 269.209,315.200 269.992 C 303.741 273.443,298.401 271.399,293.030 261.508 C 291.565 258.809,290.193 256.330,289.982 256.000 C 289.771 255.670,289.151 254.500,288.605 253.400 C 288.058 252.300,287.068 250.500,286.404 249.400 C 285.741 248.300,284.834 246.680,284.388 245.800 C 283.942 244.920,282.679 242.580,281.582 240.600 C 280.484 238.620,279.184 236.190,278.693 235.200 C 278.202 234.210,277.676 233.306,277.525 233.192 C 277.374 233.078,276.875 232.178,276.416 231.192 C 273.977 225.954,273.247 225.671,271.120 229.141 C 270.628 229.944,270.082 230.780,269.907 231.000 C 269.732 231.220,269.176 232.030,268.672 232.800 C 267.344 234.828,264.891 238.447,264.090 239.558 C 263.711 240.085,263.130 240.925,262.800 241.426 C 262.470 241.926,259.860 245.785,257.000 250.001 C 254.140 254.216,251.440 258.252,251.000 258.968 C 250.560 259.684,249.885 260.582,249.500 260.964 C 249.115 261.345,248.800 261.844,248.800 262.073 C 248.800 263.645,243.558 267.200,241.239 267.200 C 239.093 267.200,234.000 263.613,234.000 262.102 C 234.000 261.894,233.550 261.201,233.000 260.562 C 232.451 259.923,232.001 259.230,232.000 259.022 C 232.000 258.675,231.527 257.892,229.364 254.657 C 223.017 245.166,222.962 237.989,229.180 230.800 C 232.738 226.688,234.309 224.911,235.008 224.210 C 235.453 223.764,236.803 222.230,238.008 220.800 C 239.214 219.370,240.408 218.020,240.663 217.800 C 240.917 217.580,242.431 215.870,244.026 214.000 C 245.621 212.130,247.139 210.420,247.400 210.200 C 247.661 209.980,248.948 208.540,250.260 207.000 C 253.378 203.338,255.498 200.954,257.100 199.309 C 259.049 197.307,258.976 197.085,251.242 181.460 C 236.432 151.545,236.800 152.365,236.800 149.234 C 236.800 136.538,256.721 134.967,263.191 147.153 C 263.526 147.783,266.140 151.759,269.000 155.989 C 271.860 160.218,274.380 163.968,274.600 164.323 C 277.282 168.644,279.469 171.600,279.983 171.600 C 280.409 171.600,281.857 170.157,284.400 167.200 C 285.610 165.793,287.140 164.063,287.800 163.356 C 288.460 162.649,289.360 161.632,289.800 161.096 C 291.142 159.464,294.478 155.593,296.800 152.975 C 298.010 151.610,299.450 149.967,300.000 149.324 C 302.916 145.912,306.290 142.179,306.957 141.627 C 307.373 141.282,308.081 140.595,308.529 140.100 C 308.977 139.605,309.496 139.200,309.681 139.200 C 309.866 139.200,310.733 138.726,311.608 138.147 C 314.598 136.169,321.454 136.022,323.927 137.883 M112.473 140.776 C 115.704 141.195,118.944 141.806,119.673 142.134 C 120.403 142.462,121.720 142.952,122.600 143.221 C 124.521 143.810,130.677 146.969,131.800 147.943 C 132.240 148.324,133.082 148.876,133.670 149.170 C 134.259 149.463,135.631 150.535,136.720 151.552 C 137.809 152.568,139.398 154.053,140.250 154.851 C 145.120 159.409,154.000 172.962,154.000 175.837 C 154.000 176.123,154.450 177.204,155.000 178.238 C 155.550 179.273,156.000 180.637,156.000 181.270 C 156.000 181.902,156.361 183.448,156.803 184.704 C 157.244 185.960,157.789 188.610,158.014 190.594 C 158.240 192.577,158.598 195.405,158.812 196.877 C 159.303 200.266,159.306 204.097,158.820 207.523 C 158.612 208.995,158.234 211.993,157.981 214.184 C 157.729 216.376,157.179 219.037,156.761 220.099 C 156.342 221.161,156.000 222.525,156.000 223.130 C 156.000 223.736,155.644 224.929,155.209 225.783 C 154.774 226.636,154.206 227.979,153.946 228.767 C 153.375 230.505,149.334 238.350,148.557 239.231 C 148.251 239.579,148.000 239.989,148.000 240.143 C 148.000 240.528,144.139 245.559,142.850 246.855 C 142.272 247.435,141.174 248.650,140.409 249.555 C 139.644 250.460,138.909 251.200,138.776 251.200 C 138.642 251.200,137.769 251.905,136.835 252.768 C 135.901 253.630,134.026 255.066,132.669 255.959 C 131.311 256.853,130.010 257.722,129.778 257.892 C 128.961 258.488,124.188 260.764,123.200 261.028 C 122.650 261.175,121.443 261.635,120.519 262.049 C 119.594 262.464,117.499 262.989,115.864 263.216 C 114.228 263.444,112.286 263.803,111.548 264.015 C 109.788 264.520,102.978 264.510,101.202 264.000 C 100.435 263.781,98.391 263.423,96.659 263.206 C 94.927 262.989,92.765 262.455,91.855 262.019 C 90.945 261.583,89.435 261.033,88.500 260.798 C 87.565 260.562,86.800 260.210,86.800 260.016 C 86.800 259.821,86.210 259.467,85.488 259.229 C 81.166 257.803,73.412 251.432,67.440 244.400 C 66.220 242.964,63.017 238.098,62.317 236.617 C 61.897 235.728,60.848 233.650,59.987 232.000 C 59.125 230.350,58.416 228.770,58.410 228.488 C 58.405 228.206,57.934 226.869,57.364 225.516 C 56.795 224.162,56.175 222.233,55.987 221.228 C 55.799 220.222,55.372 218.443,55.038 217.274 C 53.077 210.402,53.284 192.427,55.403 185.600 C 55.710 184.610,56.225 182.810,56.548 181.600 C 57.521 177.951,59.972 171.924,61.591 169.200 C 61.787 168.870,62.634 167.430,63.474 166.000 C 64.313 164.570,65.192 163.220,65.428 163.000 C 65.663 162.780,66.170 162.093,66.555 161.474 C 67.443 160.040,68.110 159.231,70.694 156.452 C 71.846 155.214,72.791 154.065,72.794 153.900 C 72.797 153.735,73.030 153.600,73.311 153.600 C 73.592 153.600,74.278 153.105,74.835 152.500 C 76.009 151.224,77.094 150.335,78.674 149.353 C 79.293 148.967,80.160 148.343,80.600 147.966 C 84.219 144.862,93.198 141.606,100.852 140.623 C 106.349 139.917,105.783 139.909,112.473 140.776 M102.152 161.805 C 98.658 162.747,94.249 166.263,91.250 170.498 C 89.759 172.605,86.800 178.414,86.800 179.234 C 86.800 179.567,86.614 180.026,86.386 180.254 C 85.726 180.914,83.631 189.404,83.200 193.166 C 81.756 205.770,84.297 223.172,88.472 229.262 C 88.872 229.846,89.200 230.463,89.200 230.632 C 89.200 230.802,89.875 231.932,90.700 233.144 C 99.585 246.187,111.609 246.808,120.688 234.694 C 121.836 233.161,122.889 231.550,123.028 231.113 C 123.167 230.675,123.712 229.681,124.240 228.903 C 124.768 228.125,125.200 227.196,125.200 226.838 C 125.200 226.481,125.547 225.540,125.972 224.748 C 126.396 223.956,126.859 222.609,126.999 221.754 C 127.140 220.899,127.598 219.210,128.016 218.000 C 130.146 211.834,130.146 192.566,128.016 186.400 C 127.598 185.190,127.140 183.480,126.998 182.600 C 126.857 181.720,126.513 180.640,126.235 180.200 C 125.957 179.760,125.440 178.540,125.086 177.489 C 124.731 176.438,124.072 175.109,123.621 174.535 C 123.169 173.962,122.800 173.354,122.800 173.186 C 122.800 173.018,122.172 171.948,121.405 170.808 C 116.226 163.111,109.307 159.876,102.152 161.805 " stroke="none" fill="#fbfbfb" fill-rule="evenodd"></path><path id="path3" d="M187.200 42.366 C 185.110 42.531,181.780 42.954,179.800 43.305 C 177.820 43.656,174.596 44.146,172.635 44.393 C 170.674 44.640,168.758 45.009,168.377 45.212 C 167.996 45.416,166.052 45.847,164.057 46.170 C 162.061 46.492,160.090 46.938,159.676 47.160 C 159.261 47.381,157.637 47.855,156.066 48.212 C 154.494 48.570,153.114 49.016,152.997 49.204 C 152.881 49.392,151.754 49.759,150.493 50.019 C 149.232 50.280,147.532 50.832,146.716 51.246 C 145.900 51.661,144.982 52.000,144.676 52.000 C 144.370 52.000,143.291 52.440,142.280 52.978 C 141.268 53.516,139.807 54.075,139.034 54.220 C 138.261 54.365,137.421 54.734,137.168 55.039 C 136.914 55.344,136.004 55.783,135.145 56.015 C 134.286 56.246,132.932 56.877,132.136 57.418 C 131.340 57.958,130.394 58.400,130.033 58.400 C 129.673 58.400,128.990 58.672,128.516 59.004 C 128.042 59.335,126.247 60.347,124.527 61.251 C 122.807 62.155,121.130 63.116,120.800 63.386 C 120.470 63.657,119.916 63.978,119.568 64.100 C 119.221 64.222,117.890 65.015,116.610 65.861 C 115.331 66.708,113.725 67.732,113.042 68.138 C 112.359 68.544,111.428 69.219,110.974 69.638 C 110.520 70.057,109.937 70.400,109.678 70.400 C 109.419 70.400,108.982 70.760,108.707 71.200 C 108.432 71.640,108.026 72.002,107.804 72.004 C 107.582 72.006,106.590 72.630,105.600 73.390 C 104.610 74.150,103.372 75.093,102.849 75.486 C 102.327 75.879,101.355 76.695,100.690 77.300 C 100.025 77.905,99.373 78.402,99.241 78.404 C 99.108 78.406,98.086 79.261,96.970 80.304 C 95.853 81.347,93.862 83.135,92.544 84.279 C 89.504 86.916,86.916 89.504,84.279 92.544 C 83.135 93.862,81.347 95.853,80.304 96.970 C 79.261 98.086,78.406 99.108,78.404 99.241 C 78.402 99.373,77.905 100.025,77.300 100.690 C 76.695 101.355,75.879 102.327,75.486 102.849 C 75.093 103.372,74.150 104.610,73.390 105.600 C 72.630 106.590,72.006 107.582,72.004 107.804 C 72.002 108.026,71.640 108.432,71.200 108.707 C 70.760 108.982,70.400 109.419,70.400 109.678 C 70.400 109.937,70.057 110.520,69.638 110.974 C 69.219 111.428,68.544 112.359,68.138 113.042 C 67.732 113.725,66.708 115.331,65.861 116.610 C 65.015 117.890,64.222 119.221,64.100 119.568 C 63.978 119.916,63.657 120.470,63.386 120.800 C 63.116 121.130,62.155 122.807,61.251 124.527 C 60.347 126.247,59.335 128.042,59.004 128.516 C 58.672 128.990,58.400 129.673,58.400 130.033 C 58.400 130.394,57.958 131.340,57.418 132.136 C 56.877 132.932,56.246 134.286,56.015 135.145 C 55.783 136.004,55.344 136.914,55.039 137.168 C 54.734 137.421,54.365 138.261,54.220 139.034 C 54.075 139.807,53.516 141.268,52.978 142.280 C 52.440 143.291,52.000 144.370,52.000 144.676 C 52.000 144.982,51.662 145.900,51.249 146.716 C 50.836 147.532,50.291 149.178,50.038 150.373 C 49.785 151.568,49.397 152.763,49.176 153.029 C 48.956 153.294,48.500 154.831,48.164 156.443 C 47.828 158.056,47.378 159.586,47.164 159.843 C 46.950 160.101,46.507 161.970,46.179 163.998 C 45.851 166.026,45.416 167.996,45.212 168.377 C 45.009 168.758,44.641 170.674,44.394 172.635 C 44.148 174.596,43.674 177.730,43.341 179.600 C 41.844 188.000,41.603 211.795,42.953 218.006 C 43.264 219.440,43.638 221.690,43.783 223.006 C 44.342 228.082,44.893 231.418,45.243 231.845 C 45.443 232.090,45.845 233.890,46.135 235.845 C 46.426 237.800,46.875 239.793,47.132 240.274 C 47.389 240.754,47.874 242.451,48.209 244.044 C 48.544 245.637,48.978 247.134,49.172 247.370 C 49.367 247.607,49.806 248.790,50.149 250.000 C 51.169 253.609,52.857 258.183,53.261 258.435 C 53.469 258.565,53.888 259.618,54.194 260.776 C 54.499 261.933,54.999 263.177,55.305 263.540 C 55.612 263.903,56.074 264.944,56.333 265.853 C 56.592 266.761,57.073 267.728,57.402 268.002 C 57.731 268.275,58.000 268.704,58.000 268.956 C 58.000 269.369,58.747 270.858,62.236 277.400 C 62.822 278.500,63.459 279.460,63.651 279.533 C 63.843 279.607,64.000 279.883,64.000 280.147 C 64.000 280.636,66.344 284.521,67.283 285.588 C 67.567 285.911,68.106 286.856,68.480 287.688 C 68.855 288.519,69.332 289.200,69.541 289.200 C 69.751 289.200,70.110 289.740,70.340 290.400 C 70.570 291.060,70.930 291.600,71.140 291.600 C 71.349 291.600,71.875 292.201,72.308 292.935 C 72.742 293.669,73.376 294.614,73.719 295.035 C 74.061 295.456,75.956 297.794,77.928 300.230 C 84.632 308.511,91.242 315.135,99.400 321.747 C 102.260 324.065,104.905 326.231,105.279 326.560 C 105.652 326.888,106.507 327.442,107.179 327.789 C 107.850 328.136,108.400 328.605,108.400 328.831 C 108.400 329.057,108.940 329.430,109.600 329.660 C 110.260 329.890,110.800 330.237,110.800 330.431 C 110.800 330.625,111.545 331.164,112.456 331.629 C 113.367 332.093,114.481 332.817,114.932 333.237 C 115.382 333.657,115.965 334.000,116.226 334.000 C 116.488 334.000,116.913 334.254,117.171 334.566 C 117.430 334.877,118.397 335.513,119.320 335.979 C 120.244 336.445,121.900 337.350,123.000 337.989 C 124.100 338.628,125.745 339.507,126.656 339.942 C 127.567 340.378,128.432 340.929,128.580 341.167 C 128.727 341.405,129.171 341.600,129.568 341.600 C 129.964 341.600,130.950 342.049,131.759 342.598 C 132.568 343.147,134.033 343.798,135.015 344.045 C 135.997 344.293,136.800 344.632,136.800 344.799 C 136.800 345.165,138.512 345.854,140.300 346.207 C 141.015 346.348,141.600 346.615,141.600 346.800 C 141.600 346.984,142.545 347.431,143.700 347.791 C 144.855 348.152,146.250 348.687,146.800 348.980 C 147.350 349.273,148.832 349.725,150.093 349.983 C 151.354 350.242,152.483 350.610,152.601 350.801 C 152.719 350.993,154.207 351.454,155.908 351.827 C 157.609 352.201,159.450 352.725,160.000 352.993 C 160.550 353.261,162.350 353.696,164.000 353.959 C 165.650 354.223,167.720 354.679,168.600 354.973 C 169.480 355.266,172.090 355.714,174.400 355.968 C 176.710 356.222,179.950 356.738,181.600 357.115 C 186.031 358.127,214.904 358.129,218.800 357.118 C 220.230 356.747,223.380 356.232,225.800 355.975 C 228.220 355.717,230.830 355.264,231.600 354.968 C 232.370 354.672,234.595 354.158,236.544 353.827 C 238.493 353.496,240.293 353.065,240.544 352.870 C 240.795 352.674,242.153 352.294,243.562 352.025 C 244.971 351.756,246.768 351.190,247.556 350.768 C 248.344 350.345,249.448 350.000,250.009 350.000 C 250.571 350.000,251.716 349.650,252.554 349.223 C 253.392 348.796,254.646 348.328,255.339 348.184 C 256.033 348.040,257.320 347.515,258.200 347.018 C 259.080 346.522,260.400 346.001,261.132 345.861 C 261.865 345.721,262.925 345.245,263.486 344.804 C 264.048 344.362,264.899 344.000,265.376 344.000 C 265.854 344.000,266.842 343.559,267.572 343.021 C 268.301 342.482,269.414 341.929,270.045 341.790 C 270.675 341.652,271.303 341.357,271.439 341.136 C 271.576 340.915,272.520 340.377,273.536 339.942 C 274.552 339.506,275.478 339.026,275.592 338.875 C 275.706 338.724,276.610 338.191,277.600 337.691 C 278.590 337.191,280.120 336.348,281.000 335.818 C 281.880 335.287,283.242 334.494,284.027 334.056 C 284.811 333.617,285.689 332.975,285.976 332.629 C 286.263 332.283,286.713 332.000,286.977 332.000 C 287.240 332.000,288.061 331.460,288.800 330.800 C 289.539 330.140,290.375 329.600,290.658 329.600 C 290.941 329.600,291.365 329.240,291.600 328.800 C 291.835 328.360,292.256 328.000,292.534 328.000 C 293.588 328.000,306.147 317.420,311.784 311.784 C 317.420 306.147,328.000 293.588,328.000 292.534 C 328.000 292.256,328.360 291.835,328.800 291.600 C 329.240 291.365,329.600 290.941,329.600 290.658 C 329.600 290.375,330.140 289.539,330.800 288.800 C 331.460 288.061,332.000 287.240,332.000 286.977 C 332.000 286.713,332.283 286.263,332.629 285.976 C 332.975 285.689,333.617 284.811,334.056 284.027 C 334.494 283.242,335.287 281.880,335.818 281.000 C 336.348 280.120,337.191 278.590,337.691 277.600 C 338.191 276.610,338.724 275.706,338.875 275.592 C 339.026 275.478,339.506 274.552,339.942 273.536 C 340.377 272.520,340.915 271.576,341.136 271.439 C 341.357 271.303,341.652 270.675,341.790 270.045 C 341.929 269.414,342.482 268.301,343.021 267.572 C 343.559 266.842,344.000 265.854,344.000 265.376 C 344.000 264.899,344.362 264.048,344.804 263.486 C 345.245 262.925,345.721 261.865,345.861 261.132 C 346.001 260.400,346.522 259.080,347.018 258.200 C 347.515 257.320,348.040 256.033,348.184 255.339 C 348.328 254.646,348.796 253.392,349.223 252.554 C 349.650 251.716,350.000 250.571,350.000 250.009 C 350.000 249.448,350.345 248.344,350.768 247.556 C 351.190 246.768,351.756 244.971,352.025 243.562 C 352.294 242.153,352.674 240.795,352.870 240.544 C 353.065 240.293,353.496 238.493,353.827 236.544 C 354.158 234.595,354.672 232.370,354.968 231.600 C 355.264 230.830,355.717 228.220,355.975 225.800 C 356.232 223.380,356.747 220.230,357.118 218.800 C 358.129 214.904,358.127 186.031,357.115 181.600 C 356.738 179.950,356.222 176.710,355.968 174.400 C 355.714 172.090,355.266 169.480,354.973 168.600 C 354.679 167.720,354.223 165.650,353.959 164.000 C 353.696 162.350,353.257 160.550,352.986 160.000 C 352.714 159.450,352.271 157.920,352.003 156.600 C 351.734 155.280,351.194 153.480,350.802 152.600 C 350.410 151.720,349.963 150.236,349.810 149.302 C 349.656 148.368,349.372 147.506,349.177 147.386 C 348.983 147.266,348.451 145.915,347.995 144.384 C 347.539 142.853,347.023 141.600,346.849 141.600 C 346.674 141.600,346.231 140.520,345.864 139.200 C 345.497 137.880,345.032 136.800,344.830 136.800 C 344.629 136.800,344.336 136.218,344.179 135.506 C 343.928 134.363,342.165 130.462,341.147 128.800 C 340.945 128.470,340.406 127.480,339.949 126.600 C 339.492 125.720,338.602 124.100,337.972 123.000 C 337.342 121.900,336.445 120.244,335.979 119.320 C 335.513 118.397,334.877 117.430,334.566 117.171 C 334.254 116.913,334.000 116.488,334.000 116.226 C 334.000 115.965,333.657 115.382,333.237 114.932 C 332.817 114.481,332.093 113.367,331.629 112.456 C 331.164 111.545,330.620 110.800,330.419 110.800 C 330.218 110.800,329.927 110.395,329.771 109.900 C 329.616 109.405,329.109 108.617,328.644 108.150 C 328.180 107.682,327.350 106.637,326.800 105.827 C 320.417 96.428,306.599 82.460,295.600 74.291 C 293.950 73.065,292.278 71.771,291.884 71.415 C 291.491 71.060,290.726 70.567,290.184 70.320 C 289.643 70.073,289.200 69.712,289.200 69.516 C 289.200 69.321,288.519 68.855,287.688 68.480 C 286.856 68.106,285.911 67.567,285.588 67.283 C 284.521 66.344,280.636 64.000,280.147 64.000 C 279.883 64.000,279.607 63.843,279.533 63.651 C 279.460 63.459,278.500 62.822,277.400 62.236 C 270.858 58.747,269.369 58.000,268.956 58.000 C 268.704 58.000,268.275 57.731,268.002 57.402 C 267.728 57.073,266.761 56.592,265.853 56.333 C 264.944 56.074,263.903 55.612,263.540 55.305 C 263.177 54.999,261.933 54.499,260.776 54.194 C 259.618 53.888,258.565 53.469,258.435 53.261 C 258.184 52.859,253.628 51.176,250.011 50.150 C 248.807 49.808,247.367 49.296,246.811 49.012 C 246.255 48.727,244.990 48.363,244.000 48.203 C 243.010 48.042,241.570 47.640,240.800 47.309 C 240.030 46.978,237.800 46.460,235.845 46.157 C 233.890 45.854,232.090 45.443,231.845 45.243 C 231.418 44.893,228.082 44.342,223.006 43.783 C 221.690 43.638,219.440 43.260,218.006 42.944 C 214.979 42.277,193.427 41.872,187.200 42.366 M212.615 44.195 C 221.611 44.941,223.954 45.215,225.149 45.662 C 225.671 45.858,228.025 46.286,230.380 46.615 C 232.735 46.943,235.678 47.569,236.921 48.006 C 238.163 48.443,239.560 48.800,240.025 48.800 C 240.748 48.800,245.738 50.268,249.800 51.675 C 250.460 51.904,251.990 52.434,253.200 52.853 C 254.410 53.272,255.967 53.882,256.660 54.207 C 257.354 54.533,258.044 54.800,258.193 54.800 C 259.104 54.800,271.178 60.574,275.800 63.220 C 276.900 63.849,278.409 64.655,279.154 65.010 C 279.899 65.365,280.979 65.977,281.554 66.368 C 282.129 66.760,284.220 68.139,286.200 69.432 C 288.180 70.725,290.340 72.200,291.000 72.709 C 291.660 73.218,292.614 73.941,293.120 74.317 C 293.626 74.693,294.616 75.458,295.320 76.018 C 296.024 76.577,297.050 77.324,297.600 77.676 C 298.774 78.428,308.193 86.867,310.800 89.502 C 314.056 92.793,322.464 102.188,322.702 102.800 C 322.830 103.130,323.400 103.959,323.967 104.643 C 325.930 107.006,326.350 107.552,327.064 108.674 C 327.459 109.293,327.886 109.890,328.014 110.000 C 328.378 110.313,332.514 116.685,334.451 119.918 C 336.137 122.731,337.443 125.077,339.676 129.300 C 342.025 133.743,347.200 145.824,347.200 146.865 C 347.200 147.130,347.542 148.079,347.960 148.974 C 348.378 149.868,348.942 151.590,349.213 152.800 C 349.485 154.010,349.939 155.458,350.221 156.017 C 350.504 156.576,350.931 158.118,351.171 159.443 C 351.412 160.767,351.950 162.830,352.367 164.026 C 352.784 165.221,353.250 167.460,353.403 169.000 C 353.556 170.540,354.014 173.150,354.420 174.800 C 357.077 185.597,357.074 213.864,354.415 225.400 C 354.009 227.160,353.471 230.201,353.219 232.158 C 352.967 234.115,352.517 236.188,352.219 236.764 C 351.921 237.339,351.546 238.708,351.385 239.805 C 351.225 240.902,350.750 242.680,350.330 243.756 C 349.911 244.832,349.371 246.632,349.130 247.756 C 348.889 248.880,348.357 250.427,347.946 251.194 C 347.536 251.961,347.200 252.802,347.200 253.064 C 347.200 253.325,346.650 254.948,345.979 256.670 C 344.627 260.133,344.559 260.294,342.873 264.000 C 340.806 268.545,340.030 270.184,339.653 270.800 C 339.451 271.130,339.076 271.850,338.820 272.400 C 338.564 272.950,337.869 274.237,337.277 275.260 C 336.685 276.283,335.786 277.869,335.279 278.784 C 334.773 279.700,333.695 281.473,332.884 282.724 C 332.072 283.976,331.227 285.297,331.004 285.660 C 321.400 301.333,301.068 321.667,285.667 331.004 C 285.300 331.227,283.976 332.072,282.724 332.884 C 281.473 333.695,279.700 334.773,278.784 335.279 C 277.869 335.786,276.283 336.685,275.260 337.277 C 274.237 337.869,272.950 338.564,272.400 338.820 C 271.850 339.076,271.130 339.451,270.800 339.653 C 270.184 340.030,268.545 340.806,264.000 342.873 C 260.294 344.559,260.133 344.627,256.670 345.979 C 254.948 346.650,253.325 347.200,253.064 347.200 C 252.802 347.200,251.961 347.536,251.194 347.946 C 250.427 348.357,248.880 348.889,247.756 349.130 C 246.632 349.371,244.832 349.911,243.756 350.330 C 242.680 350.750,240.902 351.225,239.805 351.385 C 238.708 351.546,237.339 351.921,236.764 352.219 C 236.188 352.517,234.115 352.967,232.158 353.219 C 230.201 353.471,227.160 354.009,225.400 354.415 C 213.864 357.074,185.597 357.077,174.800 354.420 C 173.150 354.014,170.540 353.556,169.000 353.403 C 167.460 353.250,165.221 352.784,164.026 352.367 C 162.830 351.950,160.767 351.412,159.443 351.171 C 158.118 350.931,156.576 350.504,156.017 350.221 C 155.458 349.939,154.010 349.485,152.800 349.213 C 151.590 348.942,149.868 348.378,148.974 347.960 C 148.079 347.542,147.148 347.200,146.904 347.200 C 146.457 347.200,141.229 345.220,139.000 344.207 C 138.340 343.907,136.810 343.215,135.600 342.669 C 131.045 340.615,129.541 339.858,124.600 337.129 C 123.500 336.521,121.880 335.634,121.000 335.157 C 119.108 334.132,108.712 327.263,107.032 325.928 C 106.390 325.418,105.286 324.505,104.580 323.900 C 103.873 323.295,103.162 322.800,103.000 322.800 C 102.684 322.800,101.597 321.888,96.614 317.442 C 88.951 310.606,80.875 301.958,76.200 295.583 C 75.540 294.683,74.730 293.640,74.400 293.265 C 73.641 292.401,73.215 291.793,69.841 286.735 C 65.762 280.622,65.304 279.882,65.030 278.953 C 64.892 278.487,64.424 277.784,63.990 277.391 C 63.555 276.998,63.200 276.417,63.200 276.100 C 63.200 275.783,62.869 275.046,62.464 274.462 C 61.142 272.553,54.800 259.092,54.800 258.193 C 54.800 258.044,54.533 257.354,54.207 256.660 C 53.882 255.967,53.272 254.410,52.853 253.200 C 52.434 251.990,51.903 250.460,51.672 249.800 C 50.636 246.831,48.809 240.455,48.582 239.014 C 48.444 238.141,48.097 236.971,47.811 236.414 C 47.525 235.856,47.074 233.690,46.809 231.600 C 46.544 229.510,46.089 226.900,45.798 225.800 C 44.794 221.996,43.600 208.005,43.600 200.034 C 43.600 191.703,44.781 178.336,45.936 173.600 C 46.178 172.610,46.636 170.180,46.955 168.200 C 47.536 164.600,48.397 160.986,49.482 157.600 C 49.800 156.610,50.384 154.540,50.782 153.000 C 51.179 151.460,51.775 149.570,52.106 148.800 C 53.151 146.373,55.207 141.012,55.203 140.723 C 55.201 140.571,55.903 138.951,56.761 137.123 C 57.620 135.295,58.696 132.990,59.152 132.000 C 59.607 131.010,60.134 129.930,60.323 129.600 C 60.654 129.019,61.341 127.723,62.864 124.800 C 63.265 124.030,63.777 123.130,64.001 122.800 C 64.224 122.470,65.255 120.760,66.290 119.000 C 67.326 117.240,68.404 115.562,68.687 115.271 C 68.969 114.981,69.200 114.589,69.200 114.400 C 69.200 114.211,69.447 113.810,69.748 113.509 C 70.050 113.208,70.599 112.375,70.969 111.659 C 71.340 110.943,71.948 110.025,72.321 109.619 C 72.695 109.213,73.450 108.222,74.000 107.416 C 75.616 105.050,78.494 101.374,80.200 99.497 C 80.640 99.012,81.597 97.893,82.327 97.008 C 84.369 94.533,93.087 85.755,96.037 83.206 C 97.487 81.952,99.056 80.583,99.525 80.163 C 101.485 78.407,105.116 75.571,107.416 74.000 C 108.222 73.450,109.194 72.714,109.576 72.364 C 109.959 72.014,111.426 71.026,112.836 70.168 C 114.246 69.309,115.490 68.505,115.600 68.381 C 116.056 67.865,126.082 62.031,128.000 61.166 C 128.550 60.918,129.270 60.549,129.600 60.347 C 129.930 60.145,131.010 59.607,132.000 59.152 C 132.990 58.696,135.295 57.620,137.123 56.761 C 138.951 55.903,140.571 55.201,140.723 55.203 C 141.012 55.207,146.373 53.151,148.800 52.106 C 149.570 51.775,151.460 51.179,153.000 50.782 C 154.540 50.384,156.610 49.800,157.600 49.482 C 160.986 48.397,164.600 47.536,168.200 46.955 C 170.180 46.636,172.520 46.196,173.400 45.977 C 181.642 43.928,199.564 43.114,212.615 44.195 M100.852 140.623 C 93.198 141.606,84.219 144.862,80.600 147.966 C 80.160 148.343,79.293 148.967,78.674 149.353 C 77.094 150.335,76.009 151.224,74.835 152.500 C 74.278 153.105,73.592 153.600,73.311 153.600 C 73.030 153.600,72.797 153.735,72.794 153.900 C 72.791 154.065,71.846 155.214,70.694 156.452 C 68.110 159.231,67.443 160.040,66.555 161.474 C 66.170 162.093,65.663 162.780,65.428 163.000 C 65.192 163.220,64.313 164.570,63.474 166.000 C 62.634 167.430,61.787 168.870,61.591 169.200 C 59.972 171.924,57.521 177.951,56.548 181.600 C 56.225 182.810,55.710 184.610,55.403 185.600 C 53.284 192.427,53.077 210.402,55.038 217.274 C 55.372 218.443,55.799 220.222,55.987 221.228 C 56.175 222.233,56.795 224.162,57.364 225.516 C 57.934 226.869,58.405 228.206,58.410 228.488 C 58.416 228.770,59.125 230.350,59.987 232.000 C 60.848 233.650,61.897 235.728,62.317 236.617 C 63.017 238.098,66.220 242.964,67.440 244.400 C 73.412 251.432,81.166 257.803,85.488 259.229 C 86.210 259.467,86.800 259.821,86.800 260.016 C 86.800 260.210,87.565 260.562,88.500 260.798 C 89.435 261.033,90.945 261.583,91.855 262.019 C 92.765 262.455,94.927 262.989,96.659 263.206 C 98.391 263.423,100.435 263.781,101.202 264.000 C 102.978 264.510,109.788 264.520,111.548 264.015 C 112.286 263.803,114.228 263.444,115.864 263.216 C 117.499 262.989,119.594 262.464,120.519 262.049 C 121.443 261.635,122.650 261.175,123.200 261.028 C 124.188 260.764,128.961 258.488,129.778 257.892 C 130.010 257.722,131.311 256.853,132.669 255.959 C 134.026 255.066,135.901 253.630,136.835 252.768 C 137.769 251.905,138.642 251.200,138.776 251.200 C 138.909 251.200,139.644 250.460,140.409 249.555 C 141.174 248.650,142.272 247.435,142.850 246.855 C 144.139 245.559,148.000 240.528,148.000 240.143 C 148.000 239.989,148.251 239.579,148.557 239.231 C 149.334 238.350,153.375 230.505,153.946 228.767 C 154.206 227.979,154.774 226.636,155.209 225.783 C 155.644 224.929,156.000 223.736,156.000 223.130 C 156.000 222.525,156.342 221.161,156.761 220.099 C 157.179 219.037,157.729 216.376,157.981 214.184 C 158.234 211.993,158.612 208.995,158.820 207.523 C 159.306 204.097,159.303 200.266,158.812 196.877 C 158.598 195.405,158.240 192.577,158.014 190.594 C 157.789 188.610,157.244 185.960,156.803 184.704 C 156.361 183.448,156.000 181.902,156.000 181.270 C 156.000 180.637,155.550 179.273,155.000 178.238 C 154.450 177.204,154.000 176.123,154.000 175.837 C 154.000 172.962,145.120 159.409,140.250 154.851 C 139.398 154.053,137.809 152.568,136.720 151.552 C 135.631 150.535,134.259 149.463,133.670 149.170 C 133.082 148.876,132.240 148.324,131.800 147.943 C 130.677 146.969,124.521 143.810,122.600 143.221 C 121.720 142.952,120.403 142.462,119.673 142.134 C 118.455 141.586,107.656 139.966,105.800 140.053 C 105.360 140.073,103.134 140.330,100.852 140.623 M111.200 141.981 C 113.617 142.177,115.926 142.592,116.639 142.960 C 117.320 143.310,118.838 143.780,120.011 144.002 C 121.184 144.225,122.427 144.662,122.772 144.973 C 123.117 145.285,124.255 145.755,125.300 146.017 C 126.345 146.280,127.200 146.664,127.200 146.870 C 127.200 147.076,127.986 147.593,128.947 148.018 C 129.908 148.443,130.920 149.063,131.196 149.395 C 131.472 149.728,131.881 150.000,132.105 150.000 C 132.956 150.000,139.057 155.576,142.388 159.400 C 144.610 161.950,147.342 165.949,149.494 169.800 C 149.986 170.680,150.586 171.850,150.828 172.400 C 151.070 172.950,151.610 174.120,152.029 175.000 C 153.677 178.469,155.289 184.208,156.803 192.000 C 157.289 194.501,157.282 209.722,156.794 212.400 C 155.461 219.716,153.583 226.358,152.045 229.200 C 151.628 229.970,151.167 231.166,151.021 231.859 C 150.874 232.551,150.415 233.424,150.000 233.800 C 149.585 234.176,149.131 235.002,148.992 235.637 C 148.853 236.272,148.580 236.889,148.386 237.009 C 148.192 237.129,147.046 238.706,145.840 240.513 C 144.634 242.321,143.007 244.475,142.224 245.301 C 141.441 246.126,140.800 246.887,140.800 246.991 C 140.800 247.094,140.148 247.769,139.351 248.490 C 138.555 249.210,137.520 250.164,137.051 250.608 C 136.583 251.052,135.334 252.042,134.275 252.808 C 133.216 253.574,131.840 254.605,131.217 255.100 C 130.594 255.595,129.899 256.000,129.673 256.000 C 129.447 256.000,128.751 256.430,128.127 256.955 C 127.503 257.480,126.298 258.101,125.449 258.335 C 124.600 258.570,123.612 259.017,123.253 259.330 C 122.894 259.643,121.610 260.125,120.400 260.403 C 119.190 260.680,117.711 261.155,117.113 261.457 C 114.298 262.881,98.247 262.721,94.791 261.234 C 93.761 260.791,92.174 260.309,91.266 260.164 C 90.358 260.019,89.411 259.654,89.161 259.353 C 88.911 259.052,87.968 258.607,87.064 258.363 C 86.161 258.120,84.908 257.489,84.280 256.961 C 83.652 256.432,82.910 256.000,82.631 256.000 C 82.352 256.000,81.798 255.640,81.400 255.200 C 81.002 254.760,80.504 254.400,80.294 254.400 C 78.428 254.400,68.753 244.141,65.387 238.595 C 64.939 237.857,64.264 236.913,63.887 236.496 C 63.509 236.078,63.200 235.461,63.200 235.124 C 63.200 234.787,62.789 233.902,62.288 233.156 C 61.786 232.410,61.155 231.056,60.886 230.147 C 60.617 229.239,60.127 228.272,59.798 227.998 C 59.469 227.725,59.200 227.149,59.200 226.718 C 59.200 226.287,58.762 224.644,58.226 223.067 C 57.690 221.490,57.128 219.300,56.976 218.200 C 56.825 217.100,56.417 215.570,56.068 214.800 C 54.963 212.357,54.885 194.078,55.964 190.293 C 56.417 188.702,56.969 186.340,57.191 185.045 C 57.412 183.750,57.751 182.490,57.944 182.245 C 58.137 182.000,58.519 180.810,58.793 179.600 C 59.066 178.390,59.552 176.982,59.873 176.472 C 60.193 175.961,60.709 174.824,61.019 173.945 C 61.329 173.066,61.947 171.836,62.392 171.212 C 62.836 170.587,63.200 169.708,63.200 169.258 C 63.200 168.808,63.446 168.296,63.746 168.120 C 64.046 167.944,64.612 167.170,65.004 166.400 C 66.956 162.561,76.369 152.085,78.500 151.378 C 78.885 151.251,79.200 150.974,79.200 150.763 C 79.200 150.553,79.653 150.208,80.206 149.998 C 80.759 149.787,81.749 149.252,82.406 148.808 C 83.063 148.363,84.095 147.668,84.700 147.263 C 85.305 146.858,86.520 146.295,87.400 146.013 C 88.280 145.730,89.285 145.251,89.633 144.948 C 89.981 144.645,91.327 144.201,92.625 143.962 C 93.922 143.722,95.527 143.236,96.192 142.882 C 97.249 142.319,101.168 141.820,105.600 141.684 C 106.370 141.660,108.890 141.794,111.200 141.981 M101.800 160.156 C 101.140 160.452,99.835 161.015,98.900 161.408 C 97.965 161.800,97.200 162.262,97.200 162.434 C 97.200 162.606,96.873 162.850,96.473 162.977 C 94.927 163.468,88.400 171.028,88.400 172.328 C 88.400 172.520,88.044 172.999,87.608 173.393 C 87.172 173.787,86.697 174.745,86.551 175.521 C 86.405 176.297,85.862 177.558,85.343 178.322 C 84.824 179.086,84.396 180.182,84.391 180.756 C 84.386 181.330,84.014 182.610,83.564 183.600 C 83.114 184.590,82.502 187.290,82.204 189.600 C 81.907 191.910,81.477 194.610,81.249 195.600 C 80.723 197.886,80.710 206.432,81.230 208.800 C 81.447 209.790,81.878 212.491,82.188 214.803 C 82.498 217.115,83.119 219.815,83.567 220.803 C 84.016 221.791,84.386 223.034,84.391 223.565 C 84.396 224.096,84.828 225.266,85.352 226.165 C 85.875 227.064,86.429 228.383,86.582 229.095 C 86.736 229.808,87.030 230.495,87.236 230.623 C 87.443 230.750,87.976 231.570,88.422 232.444 C 89.221 234.010,89.557 234.469,91.445 236.573 C 91.970 237.158,92.400 237.768,92.400 237.929 C 92.400 238.811,96.788 242.017,100.200 243.629 C 107.394 247.028,117.029 243.249,122.500 234.882 C 125.042 230.995,125.535 230.150,125.816 229.200 C 125.979 228.650,126.447 227.573,126.856 226.806 C 127.265 226.039,127.600 225.179,127.600 224.894 C 127.600 224.609,128.026 223.346,128.547 222.088 C 129.068 220.830,129.614 218.727,129.760 217.415 C 129.907 216.104,130.336 214.034,130.713 212.815 C 131.600 209.955,131.715 194.713,130.869 192.308 C 130.580 191.488,130.097 189.178,129.796 187.176 C 129.495 185.173,128.992 183.142,128.677 182.662 C 128.362 182.181,127.971 181.161,127.807 180.394 C 127.643 179.627,127.090 178.100,126.578 177.000 C 126.066 175.900,125.461 174.505,125.233 173.900 C 125.006 173.295,124.635 172.800,124.410 172.800 C 124.184 172.800,124.000 172.550,124.000 172.244 C 124.000 170.935,117.384 163.200,116.265 163.200 C 116.005 163.200,115.573 162.848,115.304 162.419 C 115.036 161.989,114.048 161.415,113.108 161.145 C 112.169 160.874,111.045 160.415,110.611 160.126 C 109.555 159.422,103.391 159.443,101.800 160.156 M110.089 161.788 C 114.542 162.948,122.800 170.353,122.800 173.186 C 122.800 173.354,123.169 173.962,123.621 174.535 C 124.072 175.109,124.731 176.438,125.086 177.489 C 125.440 178.540,125.957 179.760,126.235 180.200 C 126.513 180.640,126.857 181.720,126.998 182.600 C 127.140 183.480,127.598 185.190,128.016 186.400 C 130.146 192.566,130.146 211.834,128.016 218.000 C 127.598 219.210,127.140 220.899,126.999 221.754 C 126.859 222.609,126.396 223.956,125.972 224.748 C 125.547 225.540,125.200 226.481,125.200 226.838 C 125.200 227.196,124.768 228.125,124.240 228.903 C 123.712 229.681,123.167 230.675,123.028 231.113 C 122.889 231.550,121.836 233.161,120.688 234.694 C 111.609 246.808,99.585 246.187,90.700 233.144 C 89.875 231.932,89.200 230.802,89.200 230.632 C 89.200 230.463,88.872 229.846,88.472 229.262 C 84.297 223.172,81.756 205.770,83.200 193.166 C 83.631 189.404,85.726 180.914,86.386 180.254 C 86.614 180.026,86.800 179.567,86.800 179.234 C 86.800 178.901,87.530 177.182,88.423 175.414 C 93.978 164.413,101.648 159.589,110.089 161.788 " stroke="none" fill="#a378b7" fill-rule="evenodd"></path><path id="path4" d="M170.800 123.441 C 166.515 124.930,163.846 127.490,163.387 130.550 C 163.066 132.685,163.919 187.740,164.403 196.200 C 164.605 199.720,164.776 205.405,164.785 208.833 C 164.809 218.883,165.850 221.800,170.521 224.907 C 174.644 227.648,174.384 227.629,202.494 227.297 L 227.587 227.000 229.009 225.578 C 231.123 223.463,231.578 221.216,231.835 211.600 C 232.195 198.178,232.355 198.293,212.800 197.997 C 192.721 197.694,194.026 199.227,193.948 175.850 C 193.794 129.258,193.578 127.184,188.600 124.485 C 186.658 123.432,173.113 122.637,170.800 123.441 M186.933 125.655 C 188.270 125.924,189.200 126.320,189.200 126.622 C 189.200 126.903,189.695 127.494,190.300 127.934 L 191.400 128.735 191.680 153.468 C 192.126 192.856,192.089 191.854,193.175 194.300 C 193.687 195.455,194.332 196.400,194.607 196.400 C 194.883 196.400,195.397 196.842,195.751 197.381 C 196.168 198.018,196.922 198.450,197.897 198.612 C 198.724 198.748,199.855 199.032,200.410 199.242 C 200.966 199.451,207.176 199.763,214.210 199.934 C 231.485 200.355,230.073 199.297,229.997 211.762 C 229.940 221.229,229.800 222.163,228.139 224.167 L 226.878 225.688 200.939 225.744 C 175.115 225.800,174.995 225.796,173.800 224.952 C 173.140 224.486,172.189 223.977,171.687 223.821 C 170.323 223.398,168.739 221.667,167.456 219.200 L 166.313 217.000 165.982 193.000 C 165.800 179.800,165.460 166.030,165.227 162.400 C 163.903 141.761,164.730 128.690,167.490 126.638 C 169.405 125.214,181.654 124.595,186.933 125.655 M315.499 136.786 C 314.100 136.974,312.576 137.507,311.608 138.147 C 310.733 138.726,309.866 139.200,309.681 139.200 C 309.496 139.200,308.977 139.605,308.529 140.100 C 308.081 140.595,307.373 141.282,306.957 141.627 C 306.290 142.179,302.916 145.912,300.000 149.324 C 299.450 149.967,298.010 151.610,296.800 152.975 C 294.478 155.593,291.142 159.464,289.800 161.096 C 289.360 161.632,288.460 162.649,287.800 163.356 C 287.140 164.063,285.610 165.793,284.400 167.200 C 281.857 170.157,280.409 171.600,279.983 171.600 C 279.469 171.600,277.282 168.644,274.600 164.323 C 274.380 163.968,271.860 160.218,269.000 155.989 C 266.140 151.759,263.526 147.783,263.191 147.153 C 256.721 134.967,236.800 136.538,236.800 149.234 C 236.800 152.365,236.432 151.545,251.242 181.460 C 258.976 197.085,259.049 197.307,257.100 199.309 C 255.498 200.954,253.378 203.338,250.260 207.000 C 248.948 208.540,247.661 209.980,247.400 210.200 C 247.139 210.420,245.621 212.130,244.026 214.000 C 242.431 215.870,240.917 217.580,240.663 217.800 C 240.408 218.020,239.214 219.370,238.008 220.800 C 236.803 222.230,235.453 223.764,235.008 224.210 C 234.309 224.911,232.738 226.688,229.180 230.800 C 222.962 237.989,223.017 245.166,229.364 254.657 C 231.527 257.892,232.000 258.675,232.000 259.022 C 232.001 259.230,232.451 259.923,233.000 260.562 C 233.550 261.201,234.000 261.894,234.000 262.102 C 234.000 263.613,239.093 267.200,241.239 267.200 C 243.558 267.200,248.800 263.645,248.800 262.073 C 248.800 261.844,249.115 261.345,249.500 260.964 C 249.885 260.582,250.560 259.684,251.000 258.968 C 251.440 258.252,254.140 254.216,257.000 250.001 C 259.860 245.785,262.470 241.926,262.800 241.426 C 263.130 240.925,263.711 240.085,264.090 239.558 C 264.891 238.447,267.344 234.828,268.672 232.800 C 269.176 232.030,269.732 231.220,269.907 231.000 C 270.082 230.780,270.628 229.944,271.120 229.141 C 273.247 225.671,273.977 225.954,276.416 231.192 C 276.875 232.178,277.374 233.078,277.525 233.192 C 277.676 233.306,278.202 234.210,278.693 235.200 C 279.184 236.190,280.484 238.620,281.582 240.600 C 282.679 242.580,283.942 244.920,284.388 245.800 C 284.834 246.680,285.741 248.300,286.404 249.400 C 287.068 250.500,288.058 252.300,288.605 253.400 C 289.151 254.500,289.771 255.670,289.982 256.000 C 290.193 256.330,291.565 258.809,293.030 261.508 C 298.401 271.399,303.741 273.443,315.200 269.992 C 317.799 269.209,320.484 268.480,325.000 267.332 C 335.910 264.557,338.145 259.130,332.008 250.317 C 331.351 249.373,327.876 244.190,324.287 238.800 C 317.089 227.990,316.472 227.068,315.600 225.826 C 315.270 225.356,314.640 224.376,314.200 223.648 C 313.760 222.919,312.912 221.695,312.316 220.927 C 311.720 220.158,311.122 219.186,310.989 218.765 C 310.855 218.344,310.590 218.000,310.400 218.000 C 310.210 218.000,309.940 217.641,309.801 217.202 C 309.662 216.764,309.334 216.177,309.074 215.900 C 308.813 215.622,307.899 214.316,307.041 212.997 C 306.184 211.679,305.150 210.150,304.744 209.600 C 304.338 209.050,303.710 208.060,303.348 207.400 C 302.987 206.740,302.446 206.056,302.146 205.880 C 301.846 205.704,301.595 205.344,301.589 205.080 C 301.583 204.816,300.769 203.430,299.780 202.000 C 294.224 193.967,294.357 194.964,298.119 189.518 C 299.484 187.542,300.780 185.628,300.999 185.263 C 301.218 184.898,301.848 183.973,302.399 183.206 C 302.950 182.440,303.580 181.525,303.800 181.174 C 305.026 179.217,305.992 177.753,306.291 177.400 C 306.477 177.180,307.882 175.110,309.414 172.800 C 310.946 170.490,312.339 168.539,312.510 168.463 C 312.680 168.388,313.087 167.758,313.413 167.063 C 314.034 165.742,315.584 163.425,316.533 162.400 C 316.839 162.070,317.321 161.350,317.605 160.800 C 317.888 160.250,318.238 159.710,318.382 159.600 C 321.990 156.850,327.706 144.152,326.443 141.695 C 326.247 141.313,325.899 140.524,325.670 139.941 C 324.619 137.264,320.793 136.077,315.499 136.786 M322.869 139.094 C 324.770 140.655,324.787 140.699,324.794 143.926 C 324.800 146.765,324.452 148.005,323.337 149.120 C 323.042 149.416,322.800 149.886,322.800 150.167 C 322.800 150.447,322.456 150.987,322.037 151.367 C 321.617 151.747,321.042 152.630,320.760 153.329 C 320.478 154.028,320.042 154.727,319.792 154.882 C 319.541 155.037,318.644 156.297,317.799 157.682 C 316.327 160.092,315.028 161.907,313.849 163.200 C 313.548 163.530,313.181 164.189,313.035 164.665 C 312.798 165.433,311.334 167.543,309.905 169.177 C 309.627 169.494,309.040 170.337,308.600 171.049 C 307.311 173.136,300.496 183.326,299.805 184.200 C 299.457 184.640,298.863 185.482,298.486 186.071 C 298.109 186.660,297.027 188.244,296.083 189.591 C 293.150 193.775,293.074 197.212,295.875 198.920 C 296.164 199.096,296.400 199.495,296.400 199.806 C 296.400 200.117,296.895 200.964,297.500 201.687 C 298.105 202.411,298.780 203.292,299.000 203.645 C 299.220 203.999,299.746 204.808,300.170 205.444 C 303.266 210.095,303.890 211.047,304.600 212.204 C 305.040 212.921,305.940 214.277,306.600 215.218 C 307.260 216.159,308.132 217.485,308.538 218.165 C 308.944 218.844,309.619 219.772,310.038 220.226 C 310.457 220.680,310.800 221.263,310.800 221.522 C 310.800 221.781,311.160 222.218,311.600 222.493 C 312.040 222.768,312.400 223.183,312.400 223.417 C 312.400 223.650,313.165 224.979,314.100 226.370 C 315.035 227.761,316.546 230.057,317.457 231.471 C 318.369 232.886,319.404 234.362,319.757 234.753 C 320.111 235.143,320.401 235.629,320.402 235.831 C 320.403 236.034,320.855 236.740,321.407 237.400 C 321.959 238.060,322.669 239.185,322.985 239.900 C 323.301 240.615,323.731 241.200,323.940 241.200 C 324.150 241.200,324.522 241.695,324.766 242.300 C 325.177 243.317,326.282 245.040,327.781 247.000 C 329.125 248.757,330.408 250.674,331.178 252.073 C 331.624 252.883,332.159 253.651,332.367 253.780 C 333.177 254.280,333.702 258.406,333.189 260.239 C 332.454 262.863,328.162 265.294,322.600 266.236 C 321.720 266.385,320.100 266.824,319.000 267.212 C 317.900 267.600,315.830 268.129,314.400 268.390 C 312.970 268.650,311.391 269.125,310.890 269.447 C 306.743 272.110,297.937 268.304,295.533 262.808 C 295.102 261.822,294.616 260.922,294.452 260.808 C 294.171 260.611,293.373 259.145,291.834 256.000 C 291.457 255.230,290.976 254.330,290.765 254.000 C 290.553 253.670,290.027 252.659,289.595 251.753 C 289.163 250.847,288.549 249.889,288.230 249.625 C 287.912 249.361,287.536 248.619,287.395 247.977 C 287.254 247.335,286.957 246.697,286.736 246.561 C 286.515 246.424,285.989 245.567,285.569 244.656 C 285.148 243.745,284.187 241.920,283.434 240.600 C 282.680 239.280,281.772 237.577,281.417 236.815 C 281.061 236.053,280.528 235.153,280.232 234.815 C 279.936 234.477,279.563 233.750,279.401 233.200 C 279.240 232.650,278.791 231.840,278.403 231.400 C 278.016 230.960,277.483 229.926,277.219 229.103 C 276.956 228.280,276.528 227.470,276.269 227.303 C 276.010 227.136,275.549 226.515,275.243 225.921 C 274.187 223.870,272.089 224.597,270.154 227.686 C 269.564 228.628,268.955 229.490,268.802 229.600 C 268.649 229.710,268.271 230.283,267.962 230.873 C 267.653 231.463,266.635 233.036,265.700 234.368 C 264.765 235.701,264.000 236.973,264.000 237.195 C 264.000 237.418,263.853 237.600,263.674 237.600 C 263.494 237.600,262.948 238.275,262.459 239.100 C 261.970 239.925,260.951 241.410,260.194 242.400 C 259.437 243.390,258.553 244.785,258.229 245.500 C 257.906 246.215,257.482 246.800,257.288 246.800 C 257.094 246.800,256.688 247.295,256.385 247.900 C 256.082 248.505,255.563 249.327,255.231 249.727 C 254.899 250.127,254.261 251.061,253.813 251.802 C 252.352 254.224,247.461 261.390,246.990 261.800 C 246.737 262.020,246.336 262.566,246.098 263.013 C 244.340 266.315,238.796 265.997,236.227 262.448 C 234.165 259.599,233.226 258.182,232.616 257.000 C 232.276 256.340,231.469 254.990,230.823 254.000 C 226.186 246.896,225.030 239.450,227.907 235.219 C 228.288 234.658,228.690 233.992,228.800 233.737 C 228.910 233.482,230.316 231.824,231.925 230.051 C 233.533 228.278,235.552 225.977,236.411 224.937 C 237.271 223.897,238.250 222.892,238.587 222.703 C 238.924 222.515,239.200 222.197,239.200 221.998 C 239.200 221.799,239.605 221.208,240.100 220.684 C 240.595 220.160,242.260 218.320,243.800 216.595 C 245.340 214.870,246.973 213.085,247.430 212.629 C 247.886 212.173,249.070 210.796,250.061 209.568 C 251.052 208.341,252.209 206.982,252.632 206.549 C 258.973 200.049,260.651 197.538,259.823 195.792 C 259.480 195.070,259.200 194.345,259.200 194.182 C 259.200 193.915,257.217 189.822,255.819 187.200 C 254.765 185.225,252.800 180.861,252.800 180.496 C 252.800 180.291,252.461 179.817,252.046 179.442 C 251.631 179.066,251.183 178.213,251.049 177.546 C 250.916 176.879,250.470 175.853,250.059 175.266 C 249.648 174.680,249.092 173.525,248.825 172.700 C 248.557 171.875,248.196 171.200,248.023 171.200 C 247.850 171.200,247.390 170.345,247.000 169.300 C 246.610 168.255,246.068 167.130,245.796 166.800 C 245.524 166.470,245.089 165.539,244.830 164.732 C 244.571 163.925,244.098 163.048,243.780 162.783 C 243.461 162.518,243.200 162.113,243.200 161.881 C 243.200 161.260,240.365 155.521,239.631 154.657 C 239.137 154.076,239.002 152.945,239.009 149.457 L 239.018 145.000 240.442 143.542 C 243.551 140.361,250.301 138.948,253.254 140.861 C 253.774 141.198,254.681 141.592,255.269 141.737 C 257.398 142.261,260.520 145.712,263.800 151.170 C 264.240 151.902,265.005 152.999,265.500 153.608 C 265.995 154.217,266.400 154.904,266.400 155.135 C 266.400 155.366,266.724 155.790,267.120 156.077 C 267.516 156.365,268.073 157.172,268.357 157.871 C 268.641 158.570,269.217 159.453,269.637 159.833 C 270.056 160.213,270.400 160.756,270.400 161.039 C 270.400 161.323,270.718 161.790,271.106 162.077 C 271.495 162.365,272.051 163.140,272.343 163.800 C 272.634 164.460,273.135 165.270,273.455 165.600 C 273.775 165.930,274.903 167.550,275.963 169.200 C 279.442 174.620,280.413 174.697,284.297 169.857 C 286.407 167.227,290.940 162.052,292.593 160.385 C 293.147 159.827,293.600 159.256,293.600 159.116 C 293.600 158.976,294.095 158.345,294.700 157.713 C 296.929 155.387,303.301 148.054,303.736 147.314 C 307.738 140.507,318.804 135.753,322.869 139.094 " stroke="none" fill="#f0b264" fill-rule="evenodd"></path></g></svg>